<?xml version="1.0" encoding="UTF-8"?>
<!DOCTYPE svg PUBLIC "-//W3C//DTD SVG 1.1//EN" "http://www.w3.org/Graphics/SVG/1.1/DTD/svg11.dtd">
<svg xmlns="http://www.w3.org/2000/svg" version="1.1" width="307px" height="309px" style="shape-rendering:geometricPrecision; text-rendering:geometricPrecision; image-rendering:optimizeQuality; fill-rule:evenodd; clip-rule:evenodd" xmlns:xlink="http://www.w3.org/1999/xlink">
<g><path style="opacity:1" fill="#fcfcfc" d="M -0.5,-0.5 C 83.5,-0.5 167.5,-0.5 251.5,-0.5C 253.774,3.772 256.441,7.772 259.5,11.5C 265.5,19.8333 271.5,28.1667 277.5,36.5C 277.062,44.9433 277.562,53.2767 279,61.5C 279.75,62.1258 280.584,62.6258 281.5,63C 287.882,63.2474 294.215,63.7474 300.5,64.5C 302.5,66.5 304.5,68.5 306.5,70.5C 306.5,149.833 306.5,229.167 306.5,308.5C 290.833,308.5 275.167,308.5 259.5,308.5C 253.406,300.57 247.906,292.237 243,283.5C 235.973,276.594 228.14,271.094 219.5,267C 228.272,272.773 236.105,279.606 243,287.5C 245.816,293.334 249.483,298.667 254,303.5C 255.094,305.078 255.928,306.745 256.5,308.5C 251.5,308.5 246.5,308.5 241.5,308.5C 240.25,303.36 239.584,303.36 239.5,308.5C 222.5,308.5 205.5,308.5 188.5,308.5C 192.122,299.803 194.622,290.803 196,281.5C 193.129,290.615 189.962,299.615 186.5,308.5C 141.833,308.5 97.1667,308.5 52.5,308.5C 54.1594,305.852 55.8261,303.185 57.5,300.5C 58.1924,301.025 58.6924,301.692 59,302.5C 63.2641,292.071 70.4308,284.404 80.5,279.5C 82.1667,279.5 83.8333,279.5 85.5,279.5C 85.2965,277.61 85.9632,276.11 87.5,275C 84.7706,275.518 82.104,276.351 79.5,277.5C 77.4048,278.412 75.4048,279.579 73.5,281C 67.3096,288.189 60.8096,295.022 54,301.5C 53.1529,303.854 52.3195,306.188 51.5,308.5C 34.1667,308.5 16.8333,308.5 -0.5,308.5C -0.5,205.5 -0.5,102.5 -0.5,-0.5 Z"/></g>
<g><path style="opacity:1" fill="#212429" d="M 251.5,-0.5 C 269.833,-0.5 288.167,-0.5 306.5,-0.5C 306.5,7.5 306.5,15.5 306.5,23.5C 305.163,24.3149 304.163,25.4815 303.5,27C 300.905,27.2256 298.405,27.7256 296,28.5C 296.344,30.2576 296.844,32.0909 297.5,34C 297.073,39.0893 294.406,40.756 289.5,39C 287.826,34.9894 284.826,32.9894 280.5,33C 278.996,31.5093 278.163,29.676 278,27.5C 274.427,24.2521 270.593,21.4188 266.5,19C 265.292,16.7497 263.959,14.583 262.5,12.5C 261.583,11.8728 260.583,11.5394 259.5,11.5C 256.441,7.772 253.774,3.772 251.5,-0.5 Z"/></g>
<g><path style="opacity:1" fill="#808184" d="M 158.5,1.5 C 163.179,1.33418 167.845,1.50085 172.5,2C 175.152,2.35302 177.152,3.51968 178.5,5.5C 175.599,4.73179 172.766,3.73179 170,2.5C 169.586,2.95735 169.086,3.29069 168.5,3.5C 165.029,2.90271 161.695,2.23604 158.5,1.5 Z"/></g>
<g><path style="opacity:1" fill="#6b6c6c" d="M 158.5,1.5 C 156.167,1.5 153.833,1.5 151.5,1.5C 138.619,0.860204 125.953,2.19354 113.5,5.5C 112.833,5.16667 112.167,4.83333 111.5,4.5C 127.123,0.66566 142.79,-0.33434 158.5,1.5 Z"/></g>
<g><path style="opacity:1" fill="#cbced6" d="M 151.5,1.5 C 153.833,1.5 156.167,1.5 158.5,1.5C 161.695,2.23604 165.029,2.90271 168.5,3.5C 169.086,3.29069 169.586,2.95735 170,2.5C 172.766,3.73179 175.599,4.73179 178.5,5.5C 180.735,5.20528 182.735,5.53862 184.5,6.5C 178.828,6.24009 173.161,5.90676 167.5,5.5C 165.708,4.69088 163.708,4.19088 161.5,4C 154.508,3.50038 147.508,3.33371 140.5,3.5C 144.167,2.83333 147.833,2.16667 151.5,1.5 Z"/></g>
<g><path style="opacity:1" fill="#444e65" d="M 140.5,3.5 C 147.508,3.33371 154.508,3.50038 161.5,4C 163.708,4.19088 165.708,4.69088 167.5,5.5C 166.081,6.45115 164.415,6.78448 162.5,6.5C 150.985,5.26766 139.318,5.26766 127.5,6.5C 128.833,5.83333 130.167,5.16667 131.5,4.5C 134.391,3.59748 137.391,3.26414 140.5,3.5 Z"/></g>
<g><path style="opacity:1" fill="#6c7173" d="M 131.5,4.5 C 130.167,5.16667 128.833,5.83333 127.5,6.5C 127.158,7.33825 126.492,7.67158 125.5,7.5C 124.903,6.86137 124.07,6.52804 123,6.5C 119.074,7.27276 115.241,8.27276 111.5,9.5C 112.058,8.21009 113.058,7.37675 114.5,7C 120.09,5.5815 125.757,4.74817 131.5,4.5 Z"/></g>
<g><path style="opacity:1" fill="#5071a3" d="M 162.5,6.5 C 157.456,6.17252 152.456,6.50585 147.5,7.5C 148.333,7.83333 149.167,8.16667 150,8.5C 164.673,10.1817 179.173,12.6817 193.5,16C 209.36,22.2624 224.027,30.5957 237.5,41C 241.211,47.4029 245.878,53.0696 251.5,58C 253.134,58.4935 254.801,58.6602 256.5,58.5C 261.42,63.4077 265.087,69.0743 267.5,75.5C 272.344,88.3567 276.344,101.357 279.5,114.5C 279.5,116.167 279.5,117.833 279.5,119.5C 278.556,122.668 278.556,126.001 279.5,129.5C 280.352,137.821 280.519,146.154 280,154.5C 278.541,152.568 277.375,150.568 276.5,148.5C 276.5,147.833 276.5,147.167 276.5,146.5C 274.782,145.776 272.948,145.109 271,144.5C 268.333,137.217 264.333,129.883 259,122.5C 255.974,119.974 252.807,117.64 249.5,115.5C 248.478,115.855 247.811,116.522 247.5,117.5C 246.778,117.082 246.278,116.416 246,115.5C 245.59,116.901 245.09,118.234 244.5,119.5C 244.167,119.5 243.833,119.5 243.5,119.5C 243.666,115.486 243.499,111.486 243,107.5C 242.825,112.019 242.325,116.353 241.5,120.5C 241.663,118.143 241.497,115.81 241,113.5C 239.915,115.657 238.749,115.824 237.5,114C 232.153,112.66 226.82,112.494 221.5,113.5C 220.808,112.975 220.308,112.308 220,111.5C 219.601,111.728 219.435,112.062 219.5,112.5C 216.829,101.819 212.495,91.8193 206.5,82.5C 203.929,86.7795 202.596,91.4461 202.5,96.5C 202.167,96.5 201.833,96.5 201.5,96.5C 201.88,88.0083 201.046,79.6749 199,71.5C 198.577,70.0439 197.744,69.5439 196.5,70C 199.189,80.9526 200.189,92.1192 199.5,103.5C 189.475,106.681 179.475,110.181 169.5,114C 170.167,114.333 170.833,114.667 171.5,115C 169.863,117.31 167.696,118.81 165,119.5C 163.05,126.064 162.217,125.731 162.5,118.5C 167.246,101.778 172.246,85.1109 177.5,68.5C 177.154,67.3044 176.654,67.3044 176,68.5C 169.284,79.7579 163.784,91.7579 159.5,104.5C 158.662,104.842 158.328,105.508 158.5,106.5C 158.167,107.167 157.833,107.833 157.5,108.5C 155.331,110.598 153.665,113.098 152.5,116C 150.722,116.704 148.888,117.204 147,117.5C 140.488,117.335 133.988,117.002 127.5,116.5C 125.889,117.32 125.222,118.654 125.5,120.5C 127.833,120.5 130.167,120.5 132.5,120.5C 134.361,126.967 132.028,130.634 125.5,131.5C 125.154,135.667 122.82,137.5 118.5,137C 117.76,138.785 117.093,140.618 116.5,142.5C 110.974,145.155 108.974,149.489 110.5,155.5C 109.675,156.386 108.675,156.719 107.5,156.5C 108.779,149.991 110.113,143.491 111.5,137C 110.565,134.619 110.232,132.119 110.5,129.5C 114.803,102.243 124.136,76.9097 138.5,53.5C 138.333,53.1667 138.167,52.8333 138,52.5C 135.957,54.208 134.29,56.208 133,58.5C 122.817,77.8861 115.317,98.2194 110.5,119.5C 109.042,121.932 107.875,124.599 107,127.5C 105.644,128.38 104.144,128.714 102.5,128.5C 102.731,134.552 103.398,140.552 104.5,146.5C 104.5,147.167 104.5,147.833 104.5,148.5C 103.503,148.47 102.836,148.97 102.5,150C 101.942,153.514 101.276,157.014 100.5,160.5C 99.2507,162.475 97.7507,162.809 96,161.5C 94.1113,144.595 94.278,127.762 96.5,111C 95.6921,109.294 94.3588,108.461 92.5,108.5C 92.6984,106.425 92.8651,104.425 93,102.5C 88.5602,107.38 85.7269,113.046 84.5,119.5C 82.5399,122.177 81.0399,125.177 80,128.5C 78.1556,135.565 76.6556,142.565 75.5,149.5C 75.2736,146.236 73.7736,145.236 71,146.5C 70.3333,150.833 70.3333,155.167 71,159.5C 72.3974,160.226 73.2308,161.393 73.5,163C 73.0315,166.386 72.0315,169.553 70.5,172.5C 71.9322,175.327 72.5988,178.327 72.5,181.5C 71.1779,181.67 70.0113,181.337 69,180.5C 68.0467,183.432 67.5467,186.432 67.5,189.5C 68.5,189.5 69.5,189.5 70.5,189.5C 70.3611,193.054 71.6944,195.888 74.5,198C 73.1153,199.597 72.4486,201.43 72.5,203.5C 73.8333,203.5 75.1667,203.5 76.5,203.5C 76.5,207.167 76.5,210.833 76.5,214.5C 77.0894,218.971 76.4228,222.971 74.5,226.5C 70.6681,225.182 67.5014,222.848 65,219.5C 60.6667,213.167 56.3333,206.833 52,200.5C 52.3096,203.461 53.4763,206.128 55.5,208.5C 48.8599,208.516 44.1932,205.516 41.5,199.5C 39.5544,194.605 37.8877,189.605 36.5,184.5C 32.5967,191.742 32.5967,199.075 36.5,206.5C 31.793,207.171 27.4597,206.004 23.5,203C 20.4414,198.999 18.4414,194.499 17.5,189.5C 15.2037,192.018 14.2037,194.685 14.5,197.5C 14.7373,198.791 14.404,199.791 13.5,200.5C 13.2792,197.903 12.7792,197.903 12,200.5C 11.502,203.482 11.3354,206.482 11.5,209.5C 10.5,209.5 9.5,209.5 8.5,209.5C 7.83333,207.167 7.16667,204.833 6.5,202.5C 8.01739,202.511 9.18405,203.177 10,204.5C 9.60308,197.523 9.60308,190.523 10,183.5C 17.3273,165.855 26.9939,149.522 39,134.5C 45.6418,115.931 51.9751,97.2638 58,78.5C 61.4391,71.1863 65.4391,64.1863 70,57.5C 72.1841,54.1338 73.5175,50.4672 74,46.5C 77.5344,44.4783 79.0344,41.4783 78.5,37.5C 91.5438,23.4685 107.21,13.4685 125.5,7.5C 126.492,7.67158 127.158,7.33825 127.5,6.5C 139.318,5.26766 150.985,5.26766 162.5,6.5 Z"/></g>
<g><path style="opacity:1" fill="#828182" d="M 111.5,9.5 C 106.192,12.2265 100.858,15.0599 95.5,18C 94.1667,18.6667 92.8333,18.6667 91.5,18C 97.6373,13.8994 104.304,11.0661 111.5,9.5 Z"/></g>
<g><path style="opacity:1" fill="#b2becc" d="M 205.5,11.5 C 206.833,11.5 208.167,11.5 209.5,11.5C 214.965,13.7321 219.965,16.7321 224.5,20.5C 218.003,17.6768 211.67,14.6768 205.5,11.5 Z"/></g>
<g><path style="opacity:1" fill="#768eb7" d="M 167.5,5.5 C 173.161,5.90676 178.828,6.24009 184.5,6.5C 191.407,8.54807 198.407,10.2147 205.5,11.5C 211.67,14.6768 218.003,17.6768 224.5,20.5C 225.167,20.5 225.833,20.5 226.5,20.5C 227.492,20.3284 228.158,20.6618 228.5,21.5C 228.062,21.4346 227.728,21.6012 227.5,22C 233.635,27.134 239.469,32.634 245,38.5C 247.639,43.6183 250.805,48.2849 254.5,52.5C 255.167,54.5 255.833,56.5 256.5,58.5C 254.801,58.6602 253.134,58.4935 251.5,58C 245.878,53.0696 241.211,47.4029 237.5,41C 224.027,30.5957 209.36,22.2624 193.5,16C 179.173,12.6817 164.673,10.1817 150,8.5C 149.167,8.16667 148.333,7.83333 147.5,7.5C 152.456,6.50585 157.456,6.17252 162.5,6.5C 164.415,6.78448 166.081,6.45115 167.5,5.5 Z"/></g>
<g><path style="opacity:1" fill="#727779" d="M 209.5,11.5 C 216.193,12.6786 221.86,15.6786 226.5,20.5C 225.833,20.5 225.167,20.5 224.5,20.5C 219.965,16.7321 214.965,13.7321 209.5,11.5 Z"/></g>
<g><path style="opacity:1" fill="#2c3132" d="M 259.5,11.5 C 260.583,11.5394 261.583,11.8728 262.5,12.5C 263.959,14.583 265.292,16.7497 266.5,19C 270.593,21.4188 274.427,24.2521 278,27.5C 278.163,29.676 278.996,31.5093 280.5,33C 284.826,32.9894 287.826,34.9894 289.5,39C 294.406,40.756 297.073,39.0893 297.5,34C 296.844,32.0909 296.344,30.2576 296,28.5C 298.405,27.7256 300.905,27.2256 303.5,27C 304.163,25.4815 305.163,24.3149 306.5,23.5C 306.5,39.1667 306.5,54.8333 306.5,70.5C 304.5,68.5 302.5,66.5 300.5,64.5C 292.345,55.495 284.678,46.1616 277.5,36.5C 271.5,28.1667 265.5,19.8333 259.5,11.5 Z"/></g>
<g><path style="opacity:1" fill="#e1e1e5" d="M 74.5,36.5 C 68.38,41.7949 63.5467,48.1282 60,55.5C 59,56.5 58,57.5 57,58.5C 57.1503,56.4944 57.6503,54.4944 58.5,52.5C 62.3132,47.5686 66.1465,42.5686 70,37.5C 71.1545,36.2567 72.4878,35.2567 74,34.5C 74.4643,35.0944 74.631,35.7611 74.5,36.5 Z"/></g>
<g><path style="opacity:1" fill="#e5e5e5" d="M 277.5,36.5 C 284.678,46.1616 292.345,55.495 300.5,64.5C 294.215,63.7474 287.882,63.2474 281.5,63C 280.584,62.6258 279.75,62.1258 279,61.5C 277.562,53.2767 277.062,44.9433 277.5,36.5 Z"/></g>
<g><path style="opacity:1" fill="#828283" d="M 74.5,36.5 C 74.631,35.7611 74.4643,35.0944 74,34.5C 72.4878,35.2567 71.1545,36.2567 70,37.5C 66.1465,42.5686 62.3132,47.5686 58.5,52.5C 60.7358,46.3685 64.2358,41.0351 69,36.5C 74.4485,34.5636 79.2818,31.5636 83.5,27.5C 83.8333,27.6667 84.1667,27.8333 84.5,28C 81.5876,31.419 78.2543,34.2524 74.5,36.5 Z"/></g>
<g><path style="opacity:1" fill="#4a5466" d="M 228.5,21.5 C 234.127,25.9562 239.627,30.6229 245,35.5C 248.698,40.8982 251.864,46.5648 254.5,52.5C 250.805,48.2849 247.639,43.6183 245,38.5C 239.469,32.634 233.635,27.134 227.5,22C 227.728,21.6012 228.062,21.4346 228.5,21.5 Z"/></g>
<g><path style="opacity:1" fill="#586170" d="M 254.5,52.5 C 262.024,61.5414 268.024,71.5414 272.5,82.5C 271.079,79.9906 269.412,77.6572 267.5,75.5C 265.087,69.0743 261.42,63.4077 256.5,58.5C 255.833,56.5 255.167,54.5 254.5,52.5 Z"/></g>
<g><path style="opacity:1" fill="#515254" d="M 54.5,57.5 C 55.452,58.452 56.452,59.452 57.5,60.5C 54.3905,64.2628 51.7238,68.2628 49.5,72.5C 49.5654,72.0618 49.3988,71.7284 49,71.5C 48.2917,72.3805 47.4584,73.0472 46.5,73.5C 48.6261,67.9144 51.2928,62.5811 54.5,57.5 Z"/></g>
<g><path style="opacity:1" fill="#26282d" d="M 49.5,72.5 C 47.0268,80.7963 44.5268,89.1297 42,97.5C 41.31,98.7383 40.81,98.7383 40.5,97.5C 41.8716,89.2978 43.8716,81.2978 46.5,73.5C 47.4584,73.0472 48.2917,72.3805 49,71.5C 49.3988,71.7284 49.5654,72.0618 49.5,72.5 Z"/></g>
<g><path style="opacity:1" fill="#788cb3" d="M 74.5,36.5 C 75.2107,38.8418 76.544,39.1751 78.5,37.5C 79.0344,41.4783 77.5344,44.4783 74,46.5C 73.5175,50.4672 72.1841,54.1338 70,57.5C 65.4391,64.1863 61.4391,71.1863 58,78.5C 51.9751,97.2638 45.6418,115.931 39,134.5C 26.9939,149.522 17.3273,165.855 10,183.5C 9.60308,190.523 9.60308,197.523 10,204.5C 9.18405,203.177 8.01739,202.511 6.5,202.5C 4.49925,193.265 4.33258,183.932 6,174.5C 6.41524,172.709 7.41524,171.376 9,170.5C 9.30283,167.001 10.1362,163.668 11.5,160.5C 17.2745,153.72 22.2745,146.387 26.5,138.5C 35.64,127.412 39.9734,114.745 39.5,100.5C 39.2627,99.209 39.596,98.209 40.5,97.5C 40.81,98.7383 41.31,98.7383 42,97.5C 44.5268,89.1297 47.0268,80.7963 49.5,72.5C 51.7238,68.2628 54.3905,64.2628 57.5,60.5C 56.452,59.452 55.452,58.452 54.5,57.5C 55.1237,55.246 56.457,53.5794 58.5,52.5C 57.6503,54.4944 57.1503,56.4944 57,58.5C 58,57.5 59,56.5 60,55.5C 63.5467,48.1282 68.38,41.7949 74.5,36.5 Z"/></g>
<g><path style="opacity:1" fill="#243860" d="M 110.5,129.5 C 109.732,130.263 109.232,131.263 109,132.5C 108.906,128.126 109.406,123.792 110.5,119.5C 115.317,98.2194 122.817,77.8861 133,58.5C 134.29,56.208 135.957,54.208 138,52.5C 138.167,52.8333 138.333,53.1667 138.5,53.5C 124.136,76.9097 114.803,102.243 110.5,129.5 Z"/></g>
<g><path style="opacity:1" fill="#d3dce5" d="M 267.5,75.5 C 269.412,77.6572 271.079,79.9906 272.5,82.5C 274.264,90.6869 276.597,98.6869 279.5,106.5C 279.5,109.167 279.5,111.833 279.5,114.5C 276.344,101.357 272.344,88.3567 267.5,75.5 Z"/></g>
<g><path style="opacity:1" fill="#b09084" d="M 221.5,137.5 C 218.564,127.939 214.73,118.606 210,109.5C 208.333,107.833 206.667,106.167 205,104.5C 203.724,106.858 202.558,109.192 201.5,111.5C 202.119,106.356 202.119,101.356 201.5,96.5C 201.833,96.5 202.167,96.5 202.5,96.5C 203.802,92.9373 205.135,89.2706 206.5,85.5C 215.847,101.552 220.847,118.885 221.5,137.5 Z"/></g>
<g><path style="opacity:1" fill="#7f8282" d="M 272.5,82.5 C 274.589,85.4368 276.089,88.7701 277,92.5C 278.152,97.1262 278.985,101.793 279.5,106.5C 276.597,98.6869 274.264,90.6869 272.5,82.5 Z"/></g>
<g><path style="opacity:1" fill="#353d58" d="M 201.5,96.5 C 202.119,101.356 202.119,106.356 201.5,111.5C 201.817,115.702 201.483,119.702 200.5,123.5C 200.167,123.5 199.833,123.5 199.5,123.5C 199.5,118.833 199.5,114.167 199.5,109.5C 199.5,107.5 199.5,105.5 199.5,103.5C 200.189,92.1192 199.189,80.9526 196.5,70C 197.744,69.5439 198.577,70.0439 199,71.5C 201.046,79.6749 201.88,88.0083 201.5,96.5 Z"/></g>
<g><path style="opacity:1" fill="#27375a" d="M 158.5,106.5 C 159.097,106.735 159.43,107.235 159.5,108C 157.68,113.686 155.68,119.186 153.5,124.5C 154.221,118.948 155.555,113.614 157.5,108.5C 157.833,107.833 158.167,107.167 158.5,106.5 Z"/></g>
<g><path style="opacity:1" fill="#617baa" d="M 199.5,103.5 C 199.5,105.5 199.5,107.5 199.5,109.5C 193.644,115.092 186.644,118.926 178.5,121C 174.981,124.576 171.315,127.91 167.5,131C 166.216,131.684 165.049,131.517 164,130.5C 163.29,131.973 162.124,132.64 160.5,132.5C 160.715,134.179 160.048,135.179 158.5,135.5C 158.882,129.493 160.216,123.827 162.5,118.5C 162.217,125.731 163.05,126.064 165,119.5C 167.696,118.81 169.863,117.31 171.5,115C 170.833,114.667 170.167,114.333 169.5,114C 179.475,110.181 189.475,106.681 199.5,103.5 Z"/></g>
<g><path style="opacity:1" fill="#5a6f99" d="M 153.5,124.5 C 155.68,119.186 157.68,113.686 159.5,108C 159.43,107.235 159.097,106.735 158.5,106.5C 158.328,105.508 158.662,104.842 159.5,104.5C 159.81,105.738 160.31,105.738 161,104.5C 164.943,95.6136 168.61,86.6136 172,77.5C 172.667,79.1667 172.667,80.8333 172,82.5C 165.579,100.515 160.246,118.849 156,137.5C 154.301,138.406 152.467,138.739 150.5,138.5C 151.815,133.906 152.815,129.239 153.5,124.5 Z"/></g>
<g><path style="opacity:1" fill="#98a1a4" d="M 279.5,106.5 C 281.245,110.2 282.245,114.2 282.5,118.5C 281.833,119.833 281.167,121.167 280.5,122.5C 279.596,121.791 279.263,120.791 279.5,119.5C 279.5,117.833 279.5,116.167 279.5,114.5C 279.5,111.833 279.5,109.167 279.5,106.5 Z"/></g>
<g><path style="opacity:1" fill="#6780aa" d="M 276.5,146.5 C 275.504,146.414 274.671,146.748 274,147.5C 269.817,156.227 263.984,163.56 256.5,169.5C 253.796,166.608 253.129,166.942 254.5,170.5C 252.938,170.733 251.605,171.4 250.5,172.5C 250.505,167.556 251.839,163.223 254.5,159.5C 254.81,160.738 255.31,160.738 256,159.5C 256.717,156.785 258.217,154.618 260.5,153C 264.421,144.011 262.921,136.178 256,129.5C 255.667,128.167 255.333,126.833 255,125.5C 252.676,124.193 251.343,122.193 251,119.5C 249.887,118.695 248.721,118.028 247.5,117.5C 247.811,116.522 248.478,115.855 249.5,115.5C 252.807,117.64 255.974,119.974 259,122.5C 264.333,129.883 268.333,137.217 271,144.5C 272.948,145.109 274.782,145.776 276.5,146.5 Z"/></g>
<g><path style="opacity:1" fill="#9c8883" d="M 243.5,119.5 C 243.833,119.5 244.167,119.5 244.5,119.5C 245.566,121.701 246.233,124.035 246.5,126.5C 245.167,126.5 243.833,126.5 242.5,126.5C 242.674,124.139 243.007,121.806 243.5,119.5 Z"/></g>
<g><path style="opacity:1" fill="#232533" d="M 247.5,117.5 C 247.203,121.164 248.203,124.33 250.5,127C 249.919,127.893 249.585,128.893 249.5,130C 250.223,133.837 250.889,137.67 251.5,141.5C 251.631,142.239 251.464,142.906 251,143.5C 250.722,142.584 250.222,141.918 249.5,141.5C 249.276,137.821 248.942,134.154 248.5,130.5C 247.833,129.167 247.167,127.833 246.5,126.5C 246.233,124.035 245.566,121.701 244.5,119.5C 245.09,118.234 245.59,116.901 246,115.5C 246.278,116.416 246.778,117.082 247.5,117.5 Z"/></g>
<g><path style="opacity:1" fill="#4e5158" d="M 39.5,100.5 C 39.9734,114.745 35.64,127.412 26.5,138.5C 26.5,137.833 26.1667,137.5 25.5,137.5C 28.8204,133.537 31.6537,129.204 34,124.5C 35.5543,116.294 37.3877,108.294 39.5,100.5 Z"/></g>
<g><path style="opacity:1" fill="#686b6f" d="M 282.5,118.5 C 283.869,123.385 284.536,128.385 284.5,133.5C 283.904,147.18 283.238,160.847 282.5,174.5C 282.167,174.5 281.833,174.5 281.5,174.5C 282.253,165.854 282.587,157.188 282.5,148.5C 282.544,142.788 282.711,137.121 283,131.5C 282.667,132.167 282.333,132.833 282,133.5C 281.064,129.886 280.564,126.22 280.5,122.5C 281.167,121.167 281.833,119.833 282.5,118.5 Z"/></g>
<g><path style="opacity:1" fill="#7d8eb2" d="M 247.5,117.5 C 248.721,118.028 249.887,118.695 251,119.5C 251.343,122.193 252.676,124.193 255,125.5C 255.333,126.833 255.667,128.167 256,129.5C 262.921,136.178 264.421,144.011 260.5,153C 258.217,154.618 256.717,156.785 256,159.5C 255.31,160.738 254.81,160.738 254.5,159.5C 254.664,156.813 254.497,154.146 254,151.5C 253.722,150.584 253.222,149.918 252.5,149.5C 252.806,146.615 252.473,143.948 251.5,141.5C 250.889,137.67 250.223,133.837 249.5,130C 249.585,128.893 249.919,127.893 250.5,127C 248.203,124.33 247.203,121.164 247.5,117.5 Z"/></g>
<g><path style="opacity:1" fill="#7d8fb2" d="M 199.5,109.5 C 199.5,114.167 199.5,118.833 199.5,123.5C 197.951,130.412 196.285,137.412 194.5,144.5C 193.442,145.6 192.608,146.934 192,148.5C 191.637,144.134 191.637,139.801 192,135.5C 190.107,140.287 187.94,144.953 185.5,149.5C 185.624,150.107 185.957,150.44 186.5,150.5C 185.396,152.389 184.063,154.055 182.5,155.5C 180.855,156.479 179.521,157.812 178.5,159.5C 177.702,159.043 177.369,158.376 177.5,157.5C 177.5,156.833 177.833,156.5 178.5,156.5C 179.653,155.687 179.653,154.687 178.5,153.5C 178.977,152.522 179.643,151.689 180.5,151C 178.5,150.667 176.5,150.333 174.5,150C 173.601,147.808 172.601,145.642 171.5,143.5C 172.747,141.958 172.747,140.458 171.5,139C 172.416,138.722 173.082,138.222 173.5,137.5C 175.078,135.682 174.578,134.682 172,134.5C 168.333,135.167 164.667,135.833 161,136.5C 159.93,136.472 159.097,136.139 158.5,135.5C 160.048,135.179 160.715,134.179 160.5,132.5C 162.124,132.64 163.29,131.973 164,130.5C 165.049,131.517 166.216,131.684 167.5,131C 171.315,127.91 174.981,124.576 178.5,121C 186.644,118.926 193.644,115.092 199.5,109.5 Z"/></g>
<g><path style="opacity:1" fill="#535460" d="M 199.5,123.5 C 199.833,123.5 200.167,123.5 200.5,123.5C 199.921,130.967 197.921,137.967 194.5,144.5C 196.285,137.412 197.951,130.412 199.5,123.5 Z"/></g>
<g><path style="opacity:1" fill="#ab8e7f" d="M 248.5,130.5 C 248.942,134.154 249.276,137.821 249.5,141.5C 249.5,143.833 249.5,146.167 249.5,148.5C 245.183,148.083 241.183,148.75 237.5,150.5C 236.391,150.557 235.391,150.89 234.5,151.5C 233.127,151.657 231.793,151.49 230.5,151C 234.117,144.65 237.451,138.15 240.5,131.5C 243.086,130.52 245.753,130.187 248.5,130.5 Z"/></g>
<g><path style="opacity:1" fill="#8b98b5" d="M 228.5,151.5 C 226.967,153.245 224.967,154.245 222.5,154.5C 221.853,153.726 221.52,152.726 221.5,151.5C 222.014,146.149 222.681,140.816 223.5,135.5C 227.865,133.736 232.365,132.402 237,131.5C 237.5,131.833 238,132.167 238.5,132.5C 235.409,139.018 232.075,145.351 228.5,151.5 Z"/></g>
<g><path style="opacity:1" fill="#232833" d="M 279.5,119.5 C 279.263,120.791 279.596,121.791 280.5,122.5C 280.564,126.22 281.064,129.886 282,133.5C 282.333,132.833 282.667,132.167 283,131.5C 282.711,137.121 282.544,142.788 282.5,148.5C 281.855,142.117 280.855,135.784 279.5,129.5C 278.556,126.001 278.556,122.668 279.5,119.5 Z"/></g>
<g><path style="opacity:1" fill="#2d3653" d="M 162.5,118.5 C 160.216,123.827 158.882,129.493 158.5,135.5C 159.097,136.139 159.93,136.472 161,136.5C 164.667,135.833 168.333,135.167 172,134.5C 174.578,134.682 175.078,135.682 173.5,137.5C 167.783,137.793 162.116,138.46 156.5,139.5C 155.167,147.499 153.833,155.499 152.5,163.5C 152.167,163.5 151.833,163.5 151.5,163.5C 152.407,155.82 153.407,148.153 154.5,140.5C 152.833,140.5 151.167,140.5 149.5,140.5C 148.661,145.523 147.661,150.523 146.5,155.5C 146.167,154.667 145.833,153.833 145.5,153C 146.234,149.499 146.9,145.999 147.5,142.5C 144.273,142.676 141.273,143.343 138.5,144.5C 136.663,144.361 136.33,143.694 137.5,142.5C 141.491,141.546 145.324,140.213 149,138.5C 149.836,133.497 151.336,128.83 153.5,124.5C 152.815,129.239 151.815,133.906 150.5,138.5C 152.467,138.739 154.301,138.406 156,137.5C 160.246,118.849 165.579,100.515 172,82.5C 172.667,80.8333 172.667,79.1667 172,77.5C 168.61,86.6136 164.943,95.6136 161,104.5C 160.31,105.738 159.81,105.738 159.5,104.5C 163.784,91.7579 169.284,79.7579 176,68.5C 176.654,67.3044 177.154,67.3044 177.5,68.5C 172.246,85.1109 167.246,101.778 162.5,118.5 Z"/></g>
<g><path style="opacity:1" fill="#7589b0" d="M 173.5,137.5 C 173.082,138.222 172.416,138.722 171.5,139C 172.747,140.458 172.747,141.958 171.5,143.5C 172.601,145.642 173.601,147.808 174.5,150C 176.5,150.333 178.5,150.667 180.5,151C 179.643,151.689 178.977,152.522 178.5,153.5C 179.653,154.687 179.653,155.687 178.5,156.5C 174.536,155.872 170.869,157.038 167.5,160C 162.593,161.614 157.593,162.781 152.5,163.5C 153.833,155.499 155.167,147.499 156.5,139.5C 162.116,138.46 167.783,137.793 173.5,137.5 Z"/></g>
<g><path style="opacity:1" fill="#434049" d="M 219.5,112.5 C 220.671,118.523 222.004,124.523 223.5,130.5C 227.389,129.189 231.389,128.522 235.5,128.5C 236.919,127.549 238.585,127.216 240.5,127.5C 240.674,125.139 241.007,122.806 241.5,120.5C 242.325,116.353 242.825,112.019 243,107.5C 243.499,111.486 243.666,115.486 243.5,119.5C 243.007,121.806 242.674,124.139 242.5,126.5C 243.833,126.5 245.167,126.5 246.5,126.5C 247.167,127.833 247.833,129.167 248.5,130.5C 245.753,130.187 243.086,130.52 240.5,131.5C 237.451,138.15 234.117,144.65 230.5,151C 231.793,151.49 233.127,151.657 234.5,151.5C 232.322,153.647 230.322,153.647 228.5,151.5C 232.075,145.351 235.409,139.018 238.5,132.5C 238,132.167 237.5,131.833 237,131.5C 232.365,132.402 227.865,133.736 223.5,135.5C 222.681,140.816 222.014,146.149 221.5,151.5C 221.52,152.726 221.853,153.726 222.5,154.5C 222.158,155.338 221.492,155.672 220.5,155.5C 220.211,149.409 220.545,143.409 221.5,137.5C 220.847,118.885 215.847,101.552 206.5,85.5C 205.135,89.2706 203.802,92.9373 202.5,96.5C 202.596,91.4461 203.929,86.7795 206.5,82.5C 212.495,91.8193 216.829,101.819 219.5,112.5 Z"/></g>
<g><path style="opacity:1" fill="#858b9e" d="M 235.5,128.5 C 238.85,128.335 242.183,128.502 245.5,129C 238.222,130.122 231.056,131.622 224,133.5C 223.5,133.167 223,132.833 222.5,132.5C 226.855,130.906 231.188,129.572 235.5,128.5 Z"/></g>
<g><path style="opacity:1" fill="#8091b2" d="M 241.5,120.5 C 241.007,122.806 240.674,125.139 240.5,127.5C 238.585,127.216 236.919,127.549 235.5,128.5C 231.389,128.522 227.389,129.189 223.5,130.5C 222.004,124.523 220.671,118.523 219.5,112.5C 219.435,112.062 219.601,111.728 220,111.5C 220.308,112.308 220.808,112.975 221.5,113.5C 226.82,112.494 232.153,112.66 237.5,114C 238.749,115.824 239.915,115.657 241,113.5C 241.497,115.81 241.663,118.143 241.5,120.5 Z"/></g>
<g><path style="opacity:1" fill="#474341" d="M 249.5,141.5 C 250.222,141.918 250.722,142.584 251,143.5C 251.464,142.906 251.631,142.239 251.5,141.5C 252.473,143.948 252.806,146.615 252.5,149.5C 251.778,149.082 251.278,148.416 251,147.5C 250.878,149.437 250.045,150.77 248.5,151.5C 247.504,150.335 246.171,149.668 244.5,149.5C 242.218,150.223 239.884,150.557 237.5,150.5C 241.183,148.75 245.183,148.083 249.5,148.5C 249.5,146.167 249.5,143.833 249.5,141.5 Z"/></g>
<g><path style="opacity:1" fill="#667ba5" d="M 151.5,163.5 C 146.105,164.974 140.772,166.308 135.5,167.5C 131.399,167.202 128.733,168.868 127.5,172.5C 127.731,174.036 130.065,173.703 134.5,171.5C 136.062,175.558 137.229,179.891 138,184.5C 138.499,180.848 138.665,177.182 138.5,173.5C 138.833,173.5 139.167,173.5 139.5,173.5C 139.5,174.5 139.5,175.5 139.5,176.5C 139.5,180.5 139.5,184.5 139.5,188.5C 138.527,190.948 138.194,193.615 138.5,196.5C 137.5,196.5 136.5,196.5 135.5,196.5C 135.167,196.5 134.833,196.5 134.5,196.5C 133.167,196.5 131.833,196.5 130.5,196.5C 132.292,195.691 134.292,195.191 136.5,195C 135.544,191.606 135.211,188.106 135.5,184.5C 133.345,184.628 131.345,184.128 129.5,183C 127.38,180.591 125.38,178.091 123.5,175.5C 121.532,178.346 121.032,181.346 122,184.5C 120.957,182.299 120.123,179.966 119.5,177.5C 118.682,180.107 118.182,182.774 118,185.5C 117.667,182.167 117.333,178.833 117,175.5C 116.329,174.748 115.496,174.414 114.5,174.5C 122.754,168.042 132.087,163.709 142.5,161.5C 138.792,160.667 135.126,161 131.5,162.5C 131.709,161.078 132.209,159.745 133,158.5C 134.131,159.604 134.965,159.271 135.5,157.5C 134.724,155.644 133.391,154.311 131.5,153.5C 132.025,152.808 132.692,152.308 133.5,152C 129.747,150.86 129.081,149.026 131.5,146.5C 133.969,145.832 136.302,145.165 138.5,144.5C 141.273,143.343 144.273,142.676 147.5,142.5C 146.9,145.999 146.234,149.499 145.5,153C 145.833,153.833 146.167,154.667 146.5,155.5C 147.661,150.523 148.661,145.523 149.5,140.5C 151.167,140.5 152.833,140.5 154.5,140.5C 153.407,148.153 152.407,155.82 151.5,163.5 Z"/></g>
<g><path style="opacity:1" fill="#374d75" d="M 84.5,119.5 C 82.1225,126.78 80.2892,134.113 79,141.5C 81.4385,139.973 83.4385,137.973 85,135.5C 85.1667,135.833 85.3333,136.167 85.5,136.5C 81.7542,142.709 80.5875,149.376 82,156.5C 79.9519,153.187 78.9519,149.521 79,145.5C 78.4652,151.515 77.7985,157.515 77,163.5C 75.5634,159.028 75.0634,154.361 75.5,149.5C 76.6556,142.565 78.1556,135.565 80,128.5C 81.0399,125.177 82.5399,122.177 84.5,119.5 Z"/></g>
<g><path style="opacity:1" fill="#95959d" d="M 19.5,145.5 C 19.3465,147.97 18.3465,149.97 16.5,151.5C 16.461,148.911 17.461,146.911 19.5,145.5 Z"/></g>
<g><path style="opacity:1" fill="#4b4e53" d="M 194.5,144.5 C 193.1,151.806 189.767,157.973 184.5,163C 182.866,163.494 181.199,163.66 179.5,163.5C 178.737,162.732 177.737,162.232 176.5,162C 180.449,161.193 180.449,160.693 176.5,160.5C 176.423,159.25 175.756,158.417 174.5,158C 175.448,157.517 176.448,157.351 177.5,157.5C 177.369,158.376 177.702,159.043 178.5,159.5C 179.521,157.812 180.855,156.479 182.5,155.5C 182.771,157.821 182.104,159.821 180.5,161.5C 181.365,162.583 182.365,162.749 183.5,162C 187.852,157.772 189.686,152.606 189,146.5C 187.905,147.693 187.072,149.027 186.5,150.5C 185.957,150.44 185.624,150.107 185.5,149.5C 187.94,144.953 190.107,140.287 192,135.5C 191.637,139.801 191.637,144.134 192,148.5C 192.608,146.934 193.442,145.6 194.5,144.5 Z"/></g>
<g><path style="opacity:1" fill="#353946" d="M 25.5,137.5 C 26.1667,137.5 26.5,137.833 26.5,138.5C 22.2745,146.387 17.2745,153.72 11.5,160.5C 12.7738,157.24 14.4405,154.24 16.5,151.5C 18.3465,149.97 19.3465,147.97 19.5,145.5C 20.5293,142.109 22.5293,139.443 25.5,137.5 Z"/></g>
<g><path style="opacity:1" fill="#1d1815" d="M 248.5,151.5 C 246.833,152.167 245.167,152.833 243.5,153.5C 241.302,153.875 239.302,154.542 237.5,155.5C 234.833,156.167 232.167,156.833 229.5,157.5C 225.619,156.696 221.953,156.362 218.5,156.5C 219.167,156.167 219.833,155.833 220.5,155.5C 221.492,155.672 222.158,155.338 222.5,154.5C 224.967,154.245 226.967,153.245 228.5,151.5C 230.322,153.647 232.322,153.647 234.5,151.5C 235.391,150.89 236.391,150.557 237.5,150.5C 239.884,150.557 242.218,150.223 244.5,149.5C 246.171,149.668 247.504,150.335 248.5,151.5 Z"/></g>
<g><path style="opacity:1" fill="#59698c" d="M 279.5,129.5 C 280.855,135.784 281.855,142.117 282.5,148.5C 282.587,157.188 282.253,165.854 281.5,174.5C 280.847,178.093 280.014,181.759 279,185.5C 278.948,176.115 278.448,169.448 277.5,165.5C 277.167,165.5 276.833,165.5 276.5,165.5C 276.717,160.77 276.383,156.103 275.5,151.5C 276.404,150.791 276.737,149.791 276.5,148.5C 277.375,150.568 278.541,152.568 280,154.5C 280.519,146.154 280.352,137.821 279.5,129.5 Z"/></g>
<g><path style="opacity:1" fill="#e4e3e4" d="M 182.5,155.5 C 184.063,154.055 185.396,152.389 186.5,150.5C 187.072,149.027 187.905,147.693 189,146.5C 189.686,152.606 187.852,157.772 183.5,162C 182.365,162.749 181.365,162.583 180.5,161.5C 182.104,159.821 182.771,157.821 182.5,155.5 Z"/></g>
<g><path style="opacity:1" fill="#a28c82" d="M 252.5,149.5 C 250.963,151.806 249.963,156.139 249.5,162.5C 247.227,159.602 245.227,156.602 243.5,153.5C 245.167,152.833 246.833,152.167 248.5,151.5C 250.045,150.77 250.878,149.437 251,147.5C 251.278,148.416 251.778,149.082 252.5,149.5 Z"/></g>
<g><path style="opacity:1" fill="#fcf1e4" d="M 221.5,137.5 C 220.545,143.409 220.211,149.409 220.5,155.5C 219.833,155.833 219.167,156.167 218.5,156.5C 216.173,156.247 214.173,156.914 212.5,158.5C 214.413,159.051 216.413,159.218 218.5,159C 215.432,160.016 212.432,161.183 209.5,162.5C 209.833,162.833 210.167,163.167 210.5,163.5C 214.35,161.702 218.35,160.869 222.5,161C 219.416,163.49 218.749,166.49 220.5,170C 220.173,171.813 219.507,173.48 218.5,175C 218.639,176.301 219.305,177.134 220.5,177.5C 220.833,178.167 221.167,178.833 221.5,179.5C 225.3,183.454 229.3,183.454 233.5,179.5C 237.534,173.403 240.2,166.736 241.5,159.5C 241.043,158.702 240.376,158.369 239.5,158.5C 243.281,156.349 242.614,155.349 237.5,155.5C 239.302,154.542 241.302,153.875 243.5,153.5C 245.227,156.602 247.227,159.602 249.5,162.5C 247.451,167.612 246.285,172.946 246,178.5C 245.338,179.984 244.504,181.317 243.5,182.5C 242.926,190.442 241.759,198.442 240,206.5C 237.71,210.619 234.876,214.286 231.5,217.5C 231.624,218.107 231.957,218.44 232.5,218.5C 231.081,218.639 229.748,219.139 228.5,220C 229.446,222.298 228.779,224.132 226.5,225.5C 226.631,224.761 226.464,224.094 226,223.5C 217.649,231.352 209.149,239.018 200.5,246.5C 198.484,247.694 196.484,247.694 194.5,246.5C 192.735,245.539 190.735,245.205 188.5,245.5C 182.097,244.031 175.764,242.365 169.5,240.5C 159.491,236.328 149.824,231.328 140.5,225.5C 139.821,213.178 139.487,200.845 139.5,188.5C 139.5,184.5 139.5,180.5 139.5,176.5C 140.391,177.11 141.391,177.443 142.5,177.5C 144.363,182.716 147.363,187.216 151.5,191C 157.404,191.549 162.737,190.049 167.5,186.5C 169.844,185.653 171.344,183.986 172,181.5C 173.37,177.725 174.536,173.891 175.5,170C 175.472,168.93 175.139,168.097 174.5,167.5C 173.817,165.824 172.483,165.157 170.5,165.5C 172.167,164.833 173.833,164.167 175.5,163.5C 176.833,163.5 178.167,163.5 179.5,163.5C 181.199,163.66 182.866,163.494 184.5,163C 189.767,157.973 193.1,151.806 194.5,144.5C 197.921,137.967 199.921,130.967 200.5,123.5C 201.483,119.702 201.817,115.702 201.5,111.5C 202.558,109.192 203.724,106.858 205,104.5C 206.667,106.167 208.333,107.833 210,109.5C 214.73,118.606 218.564,127.939 221.5,137.5 Z"/></g>
<g><path style="opacity:1" fill="#605b52" d="M 218.5,156.5 C 221.953,156.362 225.619,156.696 229.5,157.5C 229.5,157.833 229.5,158.167 229.5,158.5C 226.192,157.974 224.026,159.307 223,162.5C 222.501,166.821 222.334,171.154 222.5,175.5C 221.833,176.167 221.167,176.833 220.5,177.5C 219.305,177.134 218.639,176.301 218.5,175C 219.507,173.48 220.173,171.813 220.5,170C 218.749,166.49 219.416,163.49 222.5,161C 218.35,160.869 214.35,161.702 210.5,163.5C 210.167,163.167 209.833,162.833 209.5,162.5C 212.432,161.183 215.432,160.016 218.5,159C 216.413,159.218 214.413,159.051 212.5,158.5C 214.173,156.914 216.173,156.247 218.5,156.5 Z"/></g>
<g><path style="opacity:1" fill="#ede37e" d="M 237.5,155.5 C 242.614,155.349 243.281,156.349 239.5,158.5C 239.512,162.45 238.179,165.784 235.5,168.5C 236.917,164.998 237.584,161.331 237.5,157.5C 234.833,157.833 232.167,158.167 229.5,158.5C 229.5,158.167 229.5,157.833 229.5,157.5C 232.167,156.833 234.833,156.167 237.5,155.5 Z"/></g>
<g><path style="opacity:1" fill="#fcf16a" d="M 235.5,168.5 C 235.103,172.565 233.103,175.565 229.5,177.5C 224.184,177.582 222.184,174.916 223.5,169.5C 223.833,167.5 224.167,165.5 224.5,163.5C 226.521,162.145 228.188,160.479 229.5,158.5C 232.167,158.167 234.833,157.833 237.5,157.5C 237.584,161.331 236.917,164.998 235.5,168.5 Z"/></g>
<g><path style="opacity:1" fill="#464228" d="M 175.5,163.5 C 173.833,164.167 172.167,164.833 170.5,165.5C 169.833,165.5 169.167,165.5 168.5,165.5C 167.167,165.833 165.833,166.167 164.5,166.5C 164.414,165.504 164.748,164.671 165.5,164C 168.817,163.502 172.15,163.335 175.5,163.5 Z"/></g>
<g><path style="opacity:1" fill="#232930" d="M 178.5,156.5 C 177.833,156.5 177.5,156.833 177.5,157.5C 176.448,157.351 175.448,157.517 174.5,158C 175.756,158.417 176.423,159.25 176.5,160.5C 173.883,159.621 171.216,159.788 168.5,161C 168.833,161.333 169.167,161.667 169.5,162C 162.475,163.56 155.475,165.226 148.5,167C 150.68,167.419 152.846,167.252 155,166.5C 156.434,166.862 157.601,167.528 158.5,168.5C 158.5,169.167 158.167,169.5 157.5,169.5C 156.348,168.375 155.348,168.375 154.5,169.5C 153.209,169.263 152.209,169.596 151.5,170.5C 151.167,170.5 150.833,170.5 150.5,170.5C 150.38,169.414 149.713,168.747 148.5,168.5C 145.18,169.297 141.846,169.964 138.5,170.5C 138.5,171.5 138.5,172.5 138.5,173.5C 138.665,177.182 138.499,180.848 138,184.5C 137.229,179.891 136.062,175.558 134.5,171.5C 135.234,170.292 135.567,168.959 135.5,167.5C 140.772,166.308 146.105,164.974 151.5,163.5C 151.833,163.5 152.167,163.5 152.5,163.5C 157.593,162.781 162.593,161.614 167.5,160C 170.869,157.038 174.536,155.872 178.5,156.5 Z"/></g>
<g><path style="opacity:1" fill="#111414" d="M 176.5,160.5 C 180.449,160.693 180.449,161.193 176.5,162C 177.737,162.232 178.737,162.732 179.5,163.5C 178.167,163.5 176.833,163.5 175.5,163.5C 172.15,163.335 168.817,163.502 165.5,164C 164.748,164.671 164.414,165.504 164.5,166.5C 162.297,166.604 160.297,167.27 158.5,168.5C 157.601,167.528 156.434,166.862 155,166.5C 152.846,167.252 150.68,167.419 148.5,167C 155.475,165.226 162.475,163.56 169.5,162C 169.167,161.667 168.833,161.333 168.5,161C 171.216,159.788 173.883,159.621 176.5,160.5 Z"/></g>
<g><path style="opacity:1" fill="#38425d" d="M 135.5,167.5 C 135.567,168.959 135.234,170.292 134.5,171.5C 130.065,173.703 127.731,174.036 127.5,172.5C 128.733,168.868 131.399,167.202 135.5,167.5 Z"/></g>
<g><path style="opacity:1" fill="#fbf06c" d="M 168.5,165.5 C 169.167,165.5 169.833,165.5 170.5,165.5C 172.483,165.157 173.817,165.824 174.5,167.5C 173.801,171.576 172.467,175.576 170.5,179.5C 168.146,181.188 166.146,183.188 164.5,185.5C 160.419,187.526 156.085,188.526 151.5,188.5C 150.641,184.886 150.641,181.219 151.5,177.5C 152.5,177.5 153.5,177.5 154.5,177.5C 154.744,174.737 156.077,172.571 158.5,171C 162.168,169.624 165.501,167.791 168.5,165.5 Z"/></g>
<g><path style="opacity:1" fill="#f1e9e4" d="M 92.5,166.5 C 92.7989,168.604 92.4656,170.604 91.5,172.5C 89.9017,171.515 88.235,171.349 86.5,172C 84.1937,174.061 82.027,176.228 80,178.5C 79.1955,181.696 79.3622,184.696 80.5,187.5C 81.1667,187.5 81.5,187.833 81.5,188.5C 84.6868,196.006 89.3534,202.34 95.5,207.5C 95.162,210.157 95.8287,212.49 97.5,214.5C 97.1667,214.833 96.8333,215.167 96.5,215.5C 95.2997,214.469 93.9663,213.635 92.5,213C 88.0334,207.532 83.2,202.365 78,197.5C 76.295,195.423 75.1283,193.09 74.5,190.5C 74.6871,186.087 75.3538,181.754 76.5,177.5C 77.7653,171.535 80.0986,166.035 83.5,161C 85.1667,160.333 86.8333,160.333 88.5,161C 89.3079,162.706 90.6412,163.539 92.5,163.5C 92.5,164.5 92.5,165.5 92.5,166.5 Z"/></g>
<g><path style="opacity:1" fill="#5c5737" d="M 154.5,169.5 C 155.348,168.375 156.348,168.375 157.5,169.5C 155.404,171.433 153.904,173.767 153,176.5C 150.984,175.045 150.151,173.045 150.5,170.5C 150.833,170.5 151.167,170.5 151.5,170.5C 151.351,171.552 151.517,172.552 152,173.5C 153.167,172.333 154.333,171.167 155.5,170C 155.272,169.601 154.938,169.435 154.5,169.5 Z"/></g>
<g><path style="opacity:1" fill="#ede986" d="M 229.5,158.5 C 228.188,160.479 226.521,162.145 224.5,163.5C 224.167,165.5 223.833,167.5 223.5,169.5C 222.184,174.916 224.184,177.582 229.5,177.5C 229.5,178.167 229.167,178.5 228.5,178.5C 226.833,178.5 225.167,178.5 223.5,178.5C 222.89,177.609 222.557,176.609 222.5,175.5C 222.334,171.154 222.501,166.821 223,162.5C 224.026,159.307 226.192,157.974 229.5,158.5 Z"/></g>
<g><path style="opacity:1" fill="#4c4e4f" d="M 150.5,170.5 C 146.789,171.344 143.123,172.344 139.5,173.5C 139.167,173.5 138.833,173.5 138.5,173.5C 138.5,172.5 138.5,171.5 138.5,170.5C 141.846,169.964 145.18,169.297 148.5,168.5C 149.713,168.747 150.38,169.414 150.5,170.5 Z"/></g>
<g><path style="opacity:1" fill="#29292f" d="M 252.5,149.5 C 253.222,149.918 253.722,150.584 254,151.5C 254.497,154.146 254.664,156.813 254.5,159.5C 251.839,163.223 250.505,167.556 250.5,172.5C 247.315,181.317 245.648,190.317 245.5,199.5C 245.5,198.5 245.5,197.5 245.5,196.5C 245.835,191.722 245.502,187.722 244.5,184.5C 243.662,184.158 243.328,183.492 243.5,182.5C 244.504,181.317 245.338,179.984 246,178.5C 246.285,172.946 247.451,167.612 249.5,162.5C 249.963,156.139 250.963,151.806 252.5,149.5 Z"/></g>
<g><path style="opacity:1" fill="#212b47" d="M 114.5,174.5 C 113.86,176.332 112.86,176.665 111.5,175.5C 117.239,169.637 123.906,165.304 131.5,162.5C 135.126,161 138.792,160.667 142.5,161.5C 132.087,163.709 122.754,168.042 114.5,174.5 Z"/></g>
<g><path style="opacity:1" fill="#cace8f" d="M 154.5,169.5 C 154.938,169.435 155.272,169.601 155.5,170C 154.333,171.167 153.167,172.333 152,173.5C 151.517,172.552 151.351,171.552 151.5,170.5C 152.209,169.596 153.209,169.263 154.5,169.5 Z"/></g>
<g><path style="opacity:1" fill="#2e3443" d="M 281.5,174.5 C 281.833,174.5 282.167,174.5 282.5,174.5C 282.728,178.924 281.728,182.924 279.5,186.5C 277.539,179.913 276.872,172.913 277.5,165.5C 278.448,169.448 278.948,176.115 279,185.5C 280.014,181.759 280.847,178.093 281.5,174.5 Z"/></g>
<g><path style="opacity:1" fill="#2d2920" d="M 239.5,158.5 C 240.376,158.369 241.043,158.702 241.5,159.5C 240.2,166.736 237.534,173.403 233.5,179.5C 229.3,183.454 225.3,183.454 221.5,179.5C 221.167,178.833 220.833,178.167 220.5,177.5C 221.167,176.833 221.833,176.167 222.5,175.5C 222.557,176.609 222.89,177.609 223.5,178.5C 225.296,181.048 226.962,181.048 228.5,178.5C 229.167,178.5 229.5,178.167 229.5,177.5C 233.103,175.565 235.103,172.565 235.5,168.5C 238.179,165.784 239.512,162.45 239.5,158.5 Z"/></g>
<g><path style="opacity:1" fill="#7389b0" d="M 262.5,226.5 C 262.672,227.492 262.338,228.158 261.5,228.5C 261.565,228.062 261.399,227.728 261,227.5C 260.333,228.833 259.667,230.167 259,231.5C 258.825,226.981 258.325,222.647 257.5,218.5C 257.719,217.325 257.386,216.325 256.5,215.5C 255.402,218.753 254.736,222.086 254.5,225.5C 252.542,229.458 249.542,232.458 245.5,234.5C 245.624,235.107 245.957,235.44 246.5,235.5C 246.44,236.043 246.107,236.376 245.5,236.5C 244.5,235 243.5,233.5 242.5,232C 242.57,231.235 242.903,230.735 243.5,230.5C 243.393,232.379 243.893,232.712 245,231.5C 245.167,228 245.333,224.5 245.5,221C 245.488,217.098 244.821,213.598 243.5,210.5C 243.737,209.209 243.404,208.209 242.5,207.5C 244.428,205.219 245.428,202.553 245.5,199.5C 245.648,190.317 247.315,181.317 250.5,172.5C 251.605,171.4 252.938,170.733 254.5,170.5C 257.841,170.344 260.674,169.011 263,166.5C 264.031,185.392 263.531,204.226 261.5,223C 261.514,224.385 261.848,225.551 262.5,226.5 Z"/></g>
<g><path style="opacity:1" fill="#f4f16f" d="M 145.5,178.5 C 145.368,175.993 144.368,175.326 142.5,176.5C 141.402,175.603 141.402,174.77 142.5,174C 144.74,173.023 147.073,172.523 149.5,172.5C 149.5,174.833 149.5,177.167 149.5,179.5C 148.041,179.567 146.708,179.234 145.5,178.5 Z"/></g>
<g><path style="opacity:1" fill="#6c6645" d="M 223.5,178.5 C 225.167,178.5 226.833,178.5 228.5,178.5C 226.962,181.048 225.296,181.048 223.5,178.5 Z"/></g>
<g><path style="opacity:1" fill="#5570a0" d="M 104.5,148.5 C 104.345,156.708 103.678,164.875 102.5,173C 102.921,175.185 103.421,177.351 104,179.5C 105.337,180.765 106.837,181.265 108.5,181C 107,180.167 105.833,179 105,177.5C 104.784,167.648 105.284,157.981 106.5,148.5C 106.333,147.167 106.167,145.833 106,144.5C 105.722,145.416 105.222,146.082 104.5,146.5C 103.398,140.552 102.731,134.552 102.5,128.5C 104.144,128.714 105.644,128.38 107,127.5C 107.875,124.599 109.042,121.932 110.5,119.5C 109.406,123.792 108.906,128.126 109,132.5C 109.232,131.263 109.732,130.263 110.5,129.5C 110.232,132.119 110.565,134.619 111.5,137C 110.113,143.491 108.779,149.991 107.5,156.5C 108.675,156.719 109.675,156.386 110.5,155.5C 108.974,149.489 110.974,145.155 116.5,142.5C 117.093,140.618 117.76,138.785 118.5,137C 122.82,137.5 125.154,135.667 125.5,131.5C 132.028,130.634 134.361,126.967 132.5,120.5C 130.167,120.5 127.833,120.5 125.5,120.5C 125.222,118.654 125.889,117.32 127.5,116.5C 133.988,117.002 140.488,117.335 147,117.5C 148.888,117.204 150.722,116.704 152.5,116C 153.665,113.098 155.331,110.598 157.5,108.5C 155.555,113.614 154.221,118.948 153.5,124.5C 151.336,128.83 149.836,133.497 149,138.5C 145.324,140.213 141.491,141.546 137.5,142.5C 136.33,143.694 136.663,144.361 138.5,144.5C 136.302,145.165 133.969,145.832 131.5,146.5C 129.081,149.026 129.747,150.86 133.5,152C 132.692,152.308 132.025,152.808 131.5,153.5C 133.391,154.311 134.724,155.644 135.5,157.5C 134.965,159.271 134.131,159.604 133,158.5C 132.209,159.745 131.709,161.078 131.5,162.5C 123.906,165.304 117.239,169.637 111.5,175.5C 112.86,176.665 113.86,176.332 114.5,174.5C 115.496,174.414 116.329,174.748 117,175.5C 117.333,178.833 117.667,182.167 118,185.5C 118.182,182.774 118.682,180.107 119.5,177.5C 120.123,179.966 120.957,182.299 122,184.5C 121.032,181.346 121.532,178.346 123.5,175.5C 125.38,178.091 127.38,180.591 129.5,183C 131.345,184.128 133.345,184.628 135.5,184.5C 135.211,188.106 135.544,191.606 136.5,195C 134.292,195.191 132.292,195.691 130.5,196.5C 120.425,200.704 110.759,205.704 101.5,211.5C 100.778,211.918 100.278,212.584 100,213.5C 99.8292,205.323 99.3292,197.323 98.5,189.5C 98.5,186.833 98.5,184.167 98.5,181.5C 99.1769,176.126 99.1769,170.792 98.5,165.5C 97.8328,168.977 97.1661,172.311 96.5,175.5C 95.8333,173.167 95.1667,170.833 94.5,168.5C 94.1927,157.161 93.6927,145.828 93,134.5C 92.6667,143.833 92.3333,153.167 92,162.5C 88,157.167 84,157.167 80,162.5C 78.2538,167.245 76.4205,171.912 74.5,176.5C 74.4387,178.721 75.1054,179.054 76.5,177.5C 75.3538,181.754 74.6871,186.087 74.5,190.5C 73.788,189.261 72.788,188.761 71.5,189C 73.1274,191.754 74.6274,194.588 76,197.5C 79.442,200.432 82.2754,203.765 84.5,207.5C 82.4879,210.457 79.8213,212.791 76.5,214.5C 76.5,210.833 76.5,207.167 76.5,203.5C 75.1667,203.5 73.8333,203.5 72.5,203.5C 72.4486,201.43 73.1153,199.597 74.5,198C 71.6944,195.888 70.3611,193.054 70.5,189.5C 69.5,189.5 68.5,189.5 67.5,189.5C 67.5467,186.432 68.0467,183.432 69,180.5C 70.0113,181.337 71.1779,181.67 72.5,181.5C 72.5988,178.327 71.9322,175.327 70.5,172.5C 72.0315,169.553 73.0315,166.386 73.5,163C 73.2308,161.393 72.3974,160.226 71,159.5C 70.3333,155.167 70.3333,150.833 71,146.5C 73.7736,145.236 75.2736,146.236 75.5,149.5C 75.0634,154.361 75.5634,159.028 77,163.5C 77.7985,157.515 78.4652,151.515 79,145.5C 78.9519,149.521 79.9519,153.187 82,156.5C 80.5875,149.376 81.7542,142.709 85.5,136.5C 85.3333,136.167 85.1667,135.833 85,135.5C 83.4385,137.973 81.4385,139.973 79,141.5C 80.2892,134.113 82.1225,126.78 84.5,119.5C 85.7269,113.046 88.5602,107.38 93,102.5C 92.8651,104.425 92.6984,106.425 92.5,108.5C 94.3588,108.461 95.6921,109.294 96.5,111C 94.278,127.762 94.1113,144.595 96,161.5C 97.7507,162.809 99.2507,162.475 100.5,160.5C 101.276,157.014 101.942,153.514 102.5,150C 102.836,148.97 103.503,148.47 104.5,148.5 Z"/></g>
<g><path style="opacity:1" fill="#aa8b7d" d="M 92.5,166.5 C 93.4731,168.948 93.8064,171.615 93.5,174.5C 94.038,176.117 94.3713,177.784 94.5,179.5C 94.9153,181.747 95.5819,183.914 96.5,186C 96.1667,186.833 95.8333,187.667 95.5,188.5C 90.6027,187.252 85.7693,185.919 81,184.5C 80.5172,185.448 80.3505,186.448 80.5,187.5C 79.3622,184.696 79.1955,181.696 80,178.5C 82.027,176.228 84.1937,174.061 86.5,172C 88.235,171.349 89.9017,171.515 91.5,172.5C 92.4656,170.604 92.7989,168.604 92.5,166.5 Z"/></g>
<g><path style="opacity:1" fill="#2f426d" d="M 98.5,181.5 C 96.7202,180.01 96.0535,178.01 96.5,175.5C 97.1661,172.311 97.8328,168.977 98.5,165.5C 99.1769,170.792 99.1769,176.126 98.5,181.5 Z"/></g>
<g><path style="opacity:1" fill="#273459" d="M 104.5,148.5 C 104.5,147.833 104.5,147.167 104.5,146.5C 105.222,146.082 105.722,145.416 106,144.5C 106.167,145.833 106.333,147.167 106.5,148.5C 105.284,157.981 104.784,167.648 105,177.5C 105.833,179 107,180.167 108.5,181C 106.837,181.265 105.337,180.765 104,179.5C 103.421,177.351 102.921,175.185 102.5,173C 103.678,164.875 104.345,156.708 104.5,148.5 Z"/></g>
<g><path style="opacity:1" fill="#2d3854" d="M 94.5,168.5 C 94.7947,170.735 94.4614,172.735 93.5,174.5C 93.8064,171.615 93.4731,168.948 92.5,166.5C 92.5,165.5 92.5,164.5 92.5,163.5C 90.6412,163.539 89.3079,162.706 88.5,161C 86.8333,160.333 85.1667,160.333 83.5,161C 80.0986,166.035 77.7653,171.535 76.5,177.5C 75.1054,179.054 74.4387,178.721 74.5,176.5C 76.4205,171.912 78.2538,167.245 80,162.5C 84,157.167 88,157.167 92,162.5C 92.3333,153.167 92.6667,143.833 93,134.5C 93.6927,145.828 94.1927,157.161 94.5,168.5 Z"/></g>
<g><path style="opacity:1" fill="#3d4757" d="M 276.5,146.5 C 276.5,147.167 276.5,147.833 276.5,148.5C 276.737,149.791 276.404,150.791 275.5,151.5C 275.19,150.262 274.69,150.262 274,151.5C 271.385,155.783 268.385,159.783 265,163.5C 264.354,174.177 264.52,184.844 265.5,195.5C 264.885,205.882 263.885,216.215 262.5,226.5C 261.848,225.551 261.514,224.385 261.5,223C 263.531,204.226 264.031,185.392 263,166.5C 260.674,169.011 257.841,170.344 254.5,170.5C 253.129,166.942 253.796,166.608 256.5,169.5C 263.984,163.56 269.817,156.227 274,147.5C 274.671,146.748 275.504,146.414 276.5,146.5 Z"/></g>
<g><path style="opacity:1" fill="#9698a0" d="M 276.5,165.5 C 276.833,165.5 277.167,165.5 277.5,165.5C 276.872,172.913 277.539,179.913 279.5,186.5C 279.189,187.478 278.522,188.145 277.5,188.5C 276.503,180.862 276.169,173.196 276.5,165.5 Z"/></g>
<g><path style="opacity:1" fill="#283b62" d="M 43.5,171.5 C 44.4972,171.47 45.1639,171.97 45.5,173C 43.5821,182.826 44.5821,192.326 48.5,201.5C 48.1667,201.833 47.8333,202.167 47.5,202.5C 42.6825,192.674 41.3492,182.341 43.5,171.5 Z"/></g>
<g><path style="opacity:1" fill="#d6d07e" d="M 168.5,165.5 C 165.501,167.791 162.168,169.624 158.5,171C 156.077,172.571 154.744,174.737 154.5,177.5C 153.5,177.5 152.5,177.5 151.5,177.5C 150.641,181.219 150.641,184.886 151.5,188.5C 149.018,186.497 148.018,183.831 148.5,180.5C 146.821,180.715 145.821,180.048 145.5,178.5C 146.708,179.234 148.041,179.567 149.5,179.5C 149.5,177.167 149.5,174.833 149.5,172.5C 147.073,172.523 144.74,173.023 142.5,174C 141.402,174.77 141.402,175.603 142.5,176.5C 142.5,176.833 142.5,177.167 142.5,177.5C 141.391,177.443 140.391,177.11 139.5,176.5C 139.5,175.5 139.5,174.5 139.5,173.5C 143.123,172.344 146.789,171.344 150.5,170.5C 150.151,173.045 150.984,175.045 153,176.5C 153.904,173.767 155.404,171.433 157.5,169.5C 158.167,169.5 158.5,169.167 158.5,168.5C 160.297,167.27 162.297,166.604 164.5,166.5C 165.833,166.167 167.167,165.833 168.5,165.5 Z"/></g>
<g><path style="opacity:1" fill="#514b3c" d="M 174.5,167.5 C 175.139,168.097 175.472,168.93 175.5,170C 174.536,173.891 173.37,177.725 172,181.5C 171.344,183.986 169.844,185.653 167.5,186.5C 167.631,185.761 167.464,185.094 167,184.5C 166.329,185.252 165.496,185.586 164.5,185.5C 166.146,183.188 168.146,181.188 170.5,179.5C 172.467,175.576 173.801,171.576 174.5,167.5 Z"/></g>
<g><path style="opacity:1" fill="#fefbf9" d="M 221.5,179.5 C 222.688,185.181 222.688,190.848 221.5,196.5C 207.195,199.702 202.195,194.535 206.5,181C 210.563,180.962 214.397,180.128 218,178.5C 219.011,179.337 220.178,179.67 221.5,179.5 Z"/></g>
<g><path style="opacity:1" fill="#6d747d" d="M 11.5,160.5 C 10.1362,163.668 9.30283,167.001 9,170.5C 7.41524,171.376 6.41524,172.709 6,174.5C 4.33258,183.932 4.49925,193.265 6.5,202.5C 7.16667,204.833 7.83333,207.167 8.5,209.5C 9.5,209.5 10.5,209.5 11.5,209.5C 11.3354,206.482 11.502,203.482 12,200.5C 12.7792,197.903 13.2792,197.903 13.5,200.5C 12.2139,205.45 12.2139,210.45 13.5,215.5C 12.6372,217.872 11.4705,217.872 10,215.5C 1.68485,200.509 0.351512,184.843 6,168.5C 7.60911,165.593 9.44245,162.927 11.5,160.5 Z"/></g>
<g><path style="opacity:1" fill="#55443e" d="M 94.5,179.5 C 97.57,182.634 98.2366,186.3 96.5,190.5C 91.8374,187.459 86.8374,186.792 81.5,188.5C 81.5,187.833 81.1667,187.5 80.5,187.5C 80.3505,186.448 80.5172,185.448 81,184.5C 85.7693,185.919 90.6027,187.252 95.5,188.5C 95.8333,187.667 96.1667,186.833 96.5,186C 95.5819,183.914 94.9153,181.747 94.5,179.5 Z"/></g>
<g><path style="opacity:1" fill="#3e342c" d="M 145.5,178.5 C 145.821,180.048 146.821,180.715 148.5,180.5C 148.018,183.831 149.018,186.497 151.5,188.5C 156.085,188.526 160.419,187.526 164.5,185.5C 165.496,185.586 166.329,185.252 167,184.5C 167.464,185.094 167.631,185.761 167.5,186.5C 162.737,190.049 157.404,191.549 151.5,191C 147.363,187.216 144.363,182.716 142.5,177.5C 142.5,177.167 142.5,176.833 142.5,176.5C 144.368,175.326 145.368,175.993 145.5,178.5 Z"/></g>
<g><path style="opacity:1" fill="#af9081" d="M 96.5,190.5 C 97.6507,195.65 97.8174,200.984 97,206.5C 96.6174,207.056 96.1174,207.389 95.5,207.5C 89.3534,202.34 84.6868,196.006 81.5,188.5C 86.8374,186.792 91.8374,187.459 96.5,190.5 Z"/></g>
<g><path style="opacity:1" fill="#6c7a96" d="M 37.5,194.5 C 36.8476,195.449 36.5143,196.615 36.5,198C 36.9448,200.59 37.6114,203.09 38.5,205.5C 37.2101,204.942 36.3768,203.942 36,202.5C 34.2367,197.445 34.2367,192.445 36,187.5C 36.4396,189.866 36.9396,192.199 37.5,194.5 Z"/></g>
<g><path style="opacity:1" fill="#d4d3d1" d="M 245.5,196.5 C 244.883,196.611 244.383,196.944 244,197.5C 243.833,196.333 243.667,195.167 243.5,194C 244.241,190.772 244.574,187.605 244.5,184.5C 245.502,187.722 245.835,191.722 245.5,196.5 Z"/></g>
<g><path style="opacity:1" fill="#585f6b" d="M 139.5,188.5 C 139.487,200.845 139.821,213.178 140.5,225.5C 139.833,225.167 139.167,224.833 138.5,224.5C 138.666,218.491 138.499,212.491 138,206.5C 136.989,205.663 135.822,205.33 134.5,205.5C 134.328,204.508 134.662,203.842 135.5,203.5C 135.56,204.043 135.893,204.376 136.5,204.5C 137.898,201.565 137.565,198.898 135.5,196.5C 136.5,196.5 137.5,196.5 138.5,196.5C 138.194,193.615 138.527,190.948 139.5,188.5 Z"/></g>
<g><path style="opacity:1" fill="#343d55" d="M 41.5,199.5 C 39.457,198.421 38.1237,196.754 37.5,194.5C 36.9396,192.199 36.4396,189.866 36,187.5C 34.2367,192.445 34.2367,197.445 36,202.5C 36.3768,203.942 37.2101,204.942 38.5,205.5C 40.9076,206.315 41.7409,207.981 41,210.5C 28.5352,211.493 20.5352,205.827 17,193.5C 15.9054,194.693 15.072,196.027 14.5,197.5C 14.2037,194.685 15.2037,192.018 17.5,189.5C 18.4414,194.499 20.4414,198.999 23.5,203C 27.4597,206.004 31.793,207.171 36.5,206.5C 32.5967,199.075 32.5967,191.742 36.5,184.5C 37.8877,189.605 39.5544,194.605 41.5,199.5 Z"/></g>
<g><path style="opacity:1" fill="#5c5a58" d="M 243.5,182.5 C 243.328,183.492 243.662,184.158 244.5,184.5C 244.574,187.605 244.241,190.772 243.5,194C 243.667,195.167 243.833,196.333 244,197.5C 244.383,196.944 244.883,196.611 245.5,196.5C 245.5,197.5 245.5,198.5 245.5,199.5C 245.428,202.553 244.428,205.219 242.5,207.5C 239.391,211.397 236.057,215.064 232.5,218.5C 231.957,218.44 231.624,218.107 231.5,217.5C 234.876,214.286 237.71,210.619 240,206.5C 241.759,198.442 242.926,190.442 243.5,182.5 Z"/></g>
<g><path style="opacity:1" fill="#343839" d="M 134.5,196.5 C 134.833,196.5 135.167,196.5 135.5,196.5C 137.565,198.898 137.898,201.565 136.5,204.5C 135.893,204.376 135.56,204.043 135.5,203.5C 136.737,202.257 136.404,201.257 134.5,200.5C 133.571,201.689 133.238,203.022 133.5,204.5C 125.271,205.299 117.605,207.799 110.5,212C 108.866,212.494 107.199,212.66 105.5,212.5C 105.737,213.791 105.404,214.791 104.5,215.5C 102.821,215.715 101.821,215.048 101.5,213.5C 112.23,206.97 123.23,201.304 134.5,196.5 Z"/></g>
<g><path style="opacity:1" fill="#192028" d="M 130.5,196.5 C 131.833,196.5 133.167,196.5 134.5,196.5C 123.23,201.304 112.23,206.97 101.5,213.5C 101.5,212.833 101.5,212.167 101.5,211.5C 110.759,205.704 120.425,200.704 130.5,196.5 Z"/></g>
<g><path style="opacity:1" fill="#445271" d="M 98.5,189.5 C 99.3292,197.323 99.8292,205.323 100,213.5C 100.278,212.584 100.778,211.918 101.5,211.5C 101.5,212.167 101.5,212.833 101.5,213.5C 101.821,215.048 102.821,215.715 104.5,215.5C 105.299,218.43 105.632,221.43 105.5,224.5C 104.691,222.708 104.191,220.708 104,218.5C 102.51,217.272 101.01,217.272 99.5,218.5C 99.5,218.167 99.5,217.833 99.5,217.5C 98.5279,208.25 98.1945,198.917 98.5,189.5 Z"/></g>
<g><path style="opacity:1" fill="#3b3d4b" d="M 94.5,168.5 C 95.1667,170.833 95.8333,173.167 96.5,175.5C 96.0535,178.01 96.7202,180.01 98.5,181.5C 98.5,184.167 98.5,186.833 98.5,189.5C 98.1945,198.917 98.5279,208.25 99.5,217.5C 96.6755,217.919 94.5088,216.919 93,214.5C 92.6012,214.728 92.4346,215.062 92.5,215.5C 89.8333,212.833 87.1667,210.167 84.5,207.5C 82.2754,203.765 79.442,200.432 76,197.5C 74.6274,194.588 73.1274,191.754 71.5,189C 72.788,188.761 73.788,189.261 74.5,190.5C 75.1283,193.09 76.295,195.423 78,197.5C 83.2,202.365 88.0334,207.532 92.5,213C 93.9663,213.635 95.2997,214.469 96.5,215.5C 96.8333,215.167 97.1667,214.833 97.5,214.5C 95.8287,212.49 95.162,210.157 95.5,207.5C 96.1174,207.389 96.6174,207.056 97,206.5C 97.8174,200.984 97.6507,195.65 96.5,190.5C 98.2366,186.3 97.57,182.634 94.5,179.5C 94.3713,177.784 94.038,176.117 93.5,174.5C 94.4614,172.735 94.7947,170.735 94.5,168.5 Z"/></g>
<g><path style="opacity:1" fill="#705245" d="M 85.5,191.5 C 88.2602,192.192 90.9269,193.192 93.5,194.5C 91.1631,195.512 88.8297,195.345 86.5,194C 85.7476,193.329 85.4142,192.496 85.5,191.5 Z"/></g>
<g><path style="opacity:1" fill="#5b74a2" d="M 134.5,205.5 C 135.822,205.33 136.989,205.663 138,206.5C 138.499,212.491 138.666,218.491 138.5,224.5C 136.956,224.297 135.622,223.63 134.5,222.5C 134.891,223.718 134.224,224.552 132.5,225C 124.605,227.283 116.939,230.117 109.5,233.5C 107.091,226.937 107.091,220.437 109.5,214C 117.295,209.428 125.629,206.595 134.5,205.5 Z"/></g>
<g><path style="opacity:1" fill="#3c4964" d="M 74.5,226.5 C 75.2613,227.391 76.2613,228.058 77.5,228.5C 78.2975,228.043 78.6309,227.376 78.5,226.5C 79.8333,229.833 79.8333,233.167 78.5,236.5C 78.5,234.5 78.5,232.5 78.5,230.5C 76.4727,230.662 74.4727,230.495 72.5,230C 71.2949,228.624 69.9616,227.458 68.5,226.5C 66.9059,223.236 64.5725,220.569 61.5,218.5C 59.9249,214.922 57.9249,211.589 55.5,208.5C 53.4763,206.128 52.3096,203.461 52,200.5C 56.3333,206.833 60.6667,213.167 65,219.5C 67.5014,222.848 70.6681,225.182 74.5,226.5 Z"/></g>
<g><path style="opacity:1" fill="#b6b9c7" d="M 61.5,218.5 C 64.5725,220.569 66.9059,223.236 68.5,226.5C 65.4275,224.431 63.0941,221.764 61.5,218.5 Z"/></g>
<g><path style="opacity:1" fill="#4a5165" d="M 243.5,210.5 C 244.821,213.598 245.488,217.098 245.5,221C 245.333,224.5 245.167,228 245,231.5C 243.893,232.712 243.393,232.379 243.5,230.5C 244.441,223.872 244.441,217.206 243.5,210.5 Z"/></g>
<g><path style="opacity:1" fill="#23283e" d="M 257.5,218.5 C 257.662,220.527 257.495,222.527 257,224.5C 255.913,222.068 255.413,222.402 255.5,225.5C 255.167,225.5 254.833,225.5 254.5,225.5C 254.736,222.086 255.402,218.753 256.5,215.5C 257.386,216.325 257.719,217.325 257.5,218.5 Z"/></g>
<g><path style="opacity:1" fill="#272f48" d="M 69.5,249.5 C 68.8333,249.5 68.5,249.167 68.5,248.5C 70.7132,246.472 73.2132,244.805 76,243.5C 77.4114,241.35 78.2447,239.016 78.5,236.5C 79.8333,233.167 79.8333,229.833 78.5,226.5C 77.8654,223.507 77.6987,220.507 78,217.5C 80.7711,225.413 81.1045,233.413 79,241.5C 76.8889,245.446 73.7222,248.113 69.5,249.5 Z"/></g>
<g><path style="opacity:1" fill="#546d9b" d="M 105.5,224.5 C 105.5,224.833 105.5,225.167 105.5,225.5C 105.5,226.5 105.5,227.5 105.5,228.5C 103.833,228.5 102.167,228.5 100.5,228.5C 99.6758,225.236 99.3424,221.902 99.5,218.5C 101.01,217.272 102.51,217.272 104,218.5C 104.191,220.708 104.691,222.708 105.5,224.5 Z"/></g>
<g><path style="opacity:1" fill="#4d5964" d="M 254.5,225.5 C 254.833,225.5 255.167,225.5 255.5,225.5C 253.867,230.122 250.867,233.455 246.5,235.5C 245.957,235.44 245.624,235.107 245.5,234.5C 249.542,232.458 252.542,229.458 254.5,225.5 Z"/></g>
<g><path style="opacity:1" fill="#1a1e28" d="M 135.5,203.5 C 134.662,203.842 134.328,204.508 134.5,205.5C 125.629,206.595 117.295,209.428 109.5,214C 107.091,220.437 107.091,226.937 109.5,233.5C 116.939,230.117 124.605,227.283 132.5,225C 134.224,224.552 134.891,223.718 134.5,222.5C 135.622,223.63 136.956,224.297 138.5,224.5C 139.167,224.833 139.833,225.167 140.5,225.5C 140.028,228.358 141.028,230.358 143.5,231.5C 141.027,231.947 140.86,232.947 143,234.5C 143.435,239.184 143.935,243.851 144.5,248.5C 142.64,243.682 140.973,238.682 139.5,233.5C 139.843,231.517 139.176,230.183 137.5,229.5C 136.054,228.06 134.221,227.393 132,227.5C 124.127,229.069 116.627,231.736 109.5,235.5C 108.548,237.045 108.215,238.712 108.5,240.5C 109.791,240.263 110.791,240.596 111.5,241.5C 110.833,241.5 110.5,241.833 110.5,242.5C 108.965,243.354 107.632,243.354 106.5,242.5C 106.373,236.801 106.04,231.134 105.5,225.5C 105.5,225.167 105.5,224.833 105.5,224.5C 105.632,221.43 105.299,218.43 104.5,215.5C 105.404,214.791 105.737,213.791 105.5,212.5C 107.199,212.66 108.866,212.494 110.5,212C 117.605,207.799 125.271,205.299 133.5,204.5C 133.238,203.022 133.571,201.689 134.5,200.5C 136.404,201.257 136.737,202.257 135.5,203.5 Z"/></g>
<g><path style="opacity:1" fill="#515765" d="M 257.5,218.5 C 258.325,222.647 258.825,226.981 259,231.5C 259.667,230.167 260.333,228.833 261,227.5C 261.399,227.728 261.565,228.062 261.5,228.5C 259.597,234.124 258.097,239.791 257,245.5C 256.828,238.654 256.328,231.987 255.5,225.5C 255.413,222.402 255.913,222.068 257,224.5C 257.495,222.527 257.662,220.527 257.5,218.5 Z"/></g>
<g><path style="opacity:1" fill="#4a5d80" d="M 84.5,207.5 C 87.1667,210.167 89.8333,212.833 92.5,215.5C 93.4006,217.727 95.0672,218.727 97.5,218.5C 98.6,234.573 100.267,250.573 102.5,266.5C 100.718,265.28 98.7179,264.614 96.5,264.5C 93.8106,263.811 92.1439,262.144 91.5,259.5C 92.7251,258.848 93.3917,257.681 93.5,256C 92.3088,251.544 91.3088,247.044 90.5,242.5C 85.428,250.074 78.428,253.407 69.5,252.5C 69.5,251.5 69.5,250.5 69.5,249.5C 73.7222,248.113 76.8889,245.446 79,241.5C 81.1045,233.413 80.7711,225.413 78,217.5C 77.6987,220.507 77.8654,223.507 78.5,226.5C 78.6309,227.376 78.2975,228.043 77.5,228.5C 76.2613,228.058 75.2613,227.391 74.5,226.5C 76.4228,222.971 77.0894,218.971 76.5,214.5C 79.8213,212.791 82.4879,210.457 84.5,207.5 Z"/></g>
<g><path style="opacity:1" fill="#282f2f" d="M 137.5,229.5 C 135.343,231.412 133.009,233.079 130.5,234.5C 123.862,235.985 117.529,238.318 111.5,241.5C 110.791,240.596 109.791,240.263 108.5,240.5C 108.215,238.712 108.548,237.045 109.5,235.5C 116.627,231.736 124.127,229.069 132,227.5C 134.221,227.393 136.054,228.06 137.5,229.5 Z"/></g>
<g><path style="opacity:1" fill="#495a75" d="M 105.5,225.5 C 106.04,231.134 106.373,236.801 106.5,242.5C 105.883,242.611 105.383,242.944 105,243.5C 104.667,247.833 104.333,252.167 104,256.5C 103.667,247.833 103.333,239.167 103,230.5C 102.441,234.186 101.774,237.853 101,241.5C 100.501,237.179 100.334,232.846 100.5,228.5C 102.167,228.5 103.833,228.5 105.5,228.5C 105.5,227.5 105.5,226.5 105.5,225.5 Z"/></g>
<g><path style="opacity:1" fill="#8f7e77" d="M 140.5,225.5 C 149.824,231.328 159.491,236.328 169.5,240.5C 170.398,241.158 171.398,241.824 172.5,242.5C 169.861,243.356 167.194,243.19 164.5,242C 157.571,238.201 150.571,234.701 143.5,231.5C 141.028,230.358 140.028,228.358 140.5,225.5 Z"/></g>
<g><path style="opacity:1" fill="#50658c" d="M 130.5,234.5 C 126.82,236.298 123.82,238.964 121.5,242.5C 118.607,244.314 115.607,244.647 112.5,243.5C 111.635,253.02 111.301,262.353 111.5,271.5C 110.983,268.418 110.15,265.418 109,262.5C 108.617,263.056 108.117,263.389 107.5,263.5C 107.082,262.778 106.416,262.278 105.5,262C 106.155,258.263 106.155,254.429 105.5,250.5C 105.833,248.5 106.167,246.5 106.5,244.5C 107.202,250.23 108.202,255.897 109.5,261.5C 109.887,255.118 110.221,248.785 110.5,242.5C 110.5,241.833 110.833,241.5 111.5,241.5C 117.529,238.318 123.862,235.985 130.5,234.5 Z"/></g>
<g><path style="opacity:1" fill="#4a5a77" d="M 224.5,227.5 C 226.561,232.933 227.894,238.6 228.5,244.5C 228.441,248.548 230.108,251.715 233.5,254C 226.757,252.466 221.424,248.633 217.5,242.5C 216.534,244.396 216.201,246.396 216.5,248.5C 214.559,251.197 213.059,254.197 212,257.5C 211.113,253.675 210.279,249.842 209.5,246C 210.167,245 210.833,244 211.5,243C 211.164,241.97 210.497,241.47 209.5,241.5C 214.474,236.861 219.474,232.195 224.5,227.5 Z"/></g>
<g><path style="opacity:1" fill="#5270a2" d="M 137.5,229.5 C 139.176,230.183 139.843,231.517 139.5,233.5C 139.581,241.228 140.248,248.895 141.5,256.5C 141.171,259.228 141.837,261.562 143.5,263.5C 143.945,271.61 144.945,279.61 146.5,287.5C 143.586,286.093 141.086,284.093 139,281.5C 138.228,281.355 137.561,281.022 137,280.5C 136.308,281.437 136.475,282.103 137.5,282.5C 135.228,283.764 132.895,283.598 130.5,282C 128.039,278.944 125.373,276.111 122.5,273.5C 122.141,271.515 121.308,270.849 120,271.5C 119.501,277.157 119.334,282.824 119.5,288.5C 116.801,283.647 114.468,278.647 112.5,273.5C 112.167,272.833 111.833,272.167 111.5,271.5C 111.301,262.353 111.635,253.02 112.5,243.5C 115.607,244.647 118.607,244.314 121.5,242.5C 123.82,238.964 126.82,236.298 130.5,234.5C 133.009,233.079 135.343,231.412 137.5,229.5 Z"/></g>
<g><path style="opacity:1" fill="#61514e" d="M 143.5,231.5 C 150.571,234.701 157.571,238.201 164.5,242C 167.194,243.19 169.861,243.356 172.5,242.5C 171.398,241.824 170.398,241.158 169.5,240.5C 175.764,242.365 182.097,244.031 188.5,245.5C 190.571,248.537 193.237,249.871 196.5,249.5C 195.946,252.746 194.946,255.746 193.5,258.5C 193.631,257.624 193.298,256.957 192.5,256.5C 187.665,254.586 183.331,251.919 179.5,248.5C 178.707,249.355 179.04,250.189 180.5,251C 184.08,253.277 187.414,255.777 190.5,258.5C 184.506,255.686 179.173,251.852 174.5,247C 171.623,245.873 168.623,245.206 165.5,245C 160.954,241.559 155.954,238.893 150.5,237C 147.98,235.303 145.647,233.47 143.5,231.5 Z"/></g>
<g><path style="opacity:1" fill="#424b5a" d="M 209.5,241.5 C 210.497,241.47 211.164,241.97 211.5,243C 210.833,244 210.167,245 209.5,246C 210.279,249.842 211.113,253.675 212,257.5C 213.059,254.197 214.559,251.197 216.5,248.5C 216.01,253.133 214.676,257.467 212.5,261.5C 211.167,259.833 209.833,258.167 208.5,256.5C 208.36,250.517 207.36,250.184 205.5,255.5C 204.698,254.048 204.198,252.382 204,250.5C 203.178,252.788 202.511,255.122 202,257.5C 199.293,255.428 198.293,252.761 199,249.5C 203.087,247.399 206.587,244.732 209.5,241.5 Z"/></g>
<g><path style="opacity:1" fill="#2c3653" d="M 139.5,233.5 C 140.973,238.682 142.64,243.682 144.5,248.5C 144.5,249.5 144.5,250.5 144.5,251.5C 143.233,253.039 142.233,254.706 141.5,256.5C 140.248,248.895 139.581,241.228 139.5,233.5 Z"/></g>
<g><path style="opacity:1" fill="#aba49c" d="M 188.5,245.5 C 190.735,245.205 192.735,245.539 194.5,246.5C 193.448,246.351 192.448,246.517 191.5,247C 193.491,247.374 195.158,248.207 196.5,249.5C 193.237,249.871 190.571,248.537 188.5,245.5 Z"/></g>
<g><path style="opacity:1" fill="#af8f7e" d="M 143.5,231.5 C 145.647,233.47 147.98,235.303 150.5,237C 155.954,238.893 160.954,241.559 165.5,245C 168.623,245.206 171.623,245.873 174.5,247C 179.173,251.852 184.506,255.686 190.5,258.5C 191.23,259.712 192.23,260.712 193.5,261.5C 191.712,264.907 188.878,266.24 185,265.5C 182.551,265.342 180.384,264.675 178.5,263.5C 175.749,261.025 172.416,260.025 168.5,260.5C 161.034,258.453 153.701,255.787 146.5,252.5C 146.158,251.662 145.492,251.328 144.5,251.5C 144.5,250.5 144.5,249.5 144.5,248.5C 143.935,243.851 143.435,239.184 143,234.5C 140.86,232.947 141.027,231.947 143.5,231.5 Z"/></g>
<g><path style="opacity:1" fill="#384150" d="M 91.5,259.5 C 90.3207,255.786 88.9873,252.12 87.5,248.5C 78.7842,255.932 69.9508,256.265 61,249.5C 60.3333,248.833 60.3333,248.167 61,247.5C 63.2415,249.715 65.7415,250.048 68.5,248.5C 68.5,249.167 68.8333,249.5 69.5,249.5C 69.5,250.5 69.5,251.5 69.5,252.5C 78.428,253.407 85.428,250.074 90.5,242.5C 91.3088,247.044 92.3088,251.544 93.5,256C 93.3917,257.681 92.7251,258.848 91.5,259.5 Z"/></g>
<g><path style="opacity:1" fill="#d1d4da" d="M 208.5,256.5 C 207.391,256.443 206.391,256.11 205.5,255.5C 207.36,250.184 208.36,250.517 208.5,256.5 Z"/></g>
<g><path style="opacity:1" fill="#3c3f4b" d="M 228.5,244.5 C 229.605,247.845 231.605,250.678 234.5,253C 238.388,253.581 242.054,253.248 245.5,252C 235.208,259.147 226.541,257.48 219.5,247C 218.212,246.761 217.212,247.261 216.5,248.5C 216.201,246.396 216.534,244.396 217.5,242.5C 221.424,248.633 226.757,252.466 233.5,254C 230.108,251.715 228.441,248.548 228.5,244.5 Z"/></g>
<g><path style="opacity:1" fill="#9d8a85" d="M 193.5,258.5 C 192.5,258.5 191.5,258.5 190.5,258.5C 187.414,255.777 184.08,253.277 180.5,251C 179.04,250.189 178.707,249.355 179.5,248.5C 183.331,251.919 187.665,254.586 192.5,256.5C 193.298,256.957 193.631,257.624 193.5,258.5 Z"/></g>
<g><path style="opacity:1" fill="#2b3347" d="M 99.5,217.5 C 99.5,217.833 99.5,218.167 99.5,218.5C 99.3424,221.902 99.6758,225.236 100.5,228.5C 100.334,232.846 100.501,237.179 101,241.5C 101.774,237.853 102.441,234.186 103,230.5C 103.333,239.167 103.667,247.833 104,256.5C 104.333,252.167 104.667,247.833 105,243.5C 105.383,242.944 105.883,242.611 106.5,242.5C 107.632,243.354 108.965,243.354 110.5,242.5C 110.221,248.785 109.887,255.118 109.5,261.5C 108.202,255.897 107.202,250.23 106.5,244.5C 106.167,246.5 105.833,248.5 105.5,250.5C 106.155,254.429 106.155,258.263 105.5,262C 106.416,262.278 107.082,262.778 107.5,263.5C 104.868,264.867 105.202,265.701 108.5,266C 107.473,266.513 106.473,267.013 105.5,267.5C 104.833,268.833 104.167,270.167 103.5,271.5C 103.5,270.833 103.5,270.167 103.5,269.5C 102.89,268.609 102.557,267.609 102.5,266.5C 100.267,250.573 98.6,234.573 97.5,218.5C 95.0672,218.727 93.4006,217.727 92.5,215.5C 92.4346,215.062 92.6012,214.728 93,214.5C 94.5088,216.919 96.6755,217.919 99.5,217.5 Z"/></g>
<g><path style="opacity:1" fill="#485777" d="M 144.5,251.5 C 145.492,251.328 146.158,251.662 146.5,252.5C 146.371,261.565 147.038,270.565 148.5,279.5C 148.497,282.025 148.163,284.359 147.5,286.5C 146.848,278.008 145.515,270.341 143.5,263.5C 141.837,261.562 141.171,259.228 141.5,256.5C 142.233,254.706 143.233,253.039 144.5,251.5 Z"/></g>
<g><path style="opacity:1" fill="#2f3031" d="M 226.5,225.5 C 225.5,225.833 224.833,226.5 224.5,227.5C 219.474,232.195 214.474,236.861 209.5,241.5C 206.587,244.732 203.087,247.399 199,249.5C 198.293,252.761 199.293,255.428 202,257.5C 202.511,255.122 203.178,252.788 204,250.5C 204.198,252.382 204.698,254.048 205.5,255.5C 206.391,256.11 207.391,256.443 208.5,256.5C 209.833,258.167 211.167,259.833 212.5,261.5C 217.023,266.52 219.023,272.52 218.5,279.5C 217.386,284.753 216.552,290.086 216,295.5C 215.308,296.025 214.808,296.692 214.5,297.5C 213.833,298.833 213.167,298.833 212.5,297.5C 211.259,293.427 208.759,290.427 205,288.5C 202.147,284.765 199.313,281.098 196.5,277.5C 196.265,276.903 195.765,276.57 195,276.5C 189.829,279.506 184.329,280.506 178.5,279.5C 184.327,279.268 189.66,277.601 194.5,274.5C 194.081,273.328 193.415,272.328 192.5,271.5C 189.06,273.567 185.393,274.4 181.5,274C 183.392,273.027 185.392,272.36 187.5,272C 180.192,271.026 175.192,273.86 172.5,280.5C 168.966,284.927 166.466,289.927 165,295.5C 164.26,297.319 163.093,298.652 161.5,299.5C 161.586,298.504 161.252,297.671 160.5,297C 155.78,295.307 151.447,293.14 147.5,290.5C 147.5,289.5 147.5,288.5 147.5,287.5C 147.5,287.167 147.5,286.833 147.5,286.5C 148.163,284.359 148.497,282.025 148.5,279.5C 147.038,270.565 146.371,261.565 146.5,252.5C 153.701,255.787 161.034,258.453 168.5,260.5C 167.047,261.825 167.381,262.658 169.5,263C 172.623,264.351 175.623,264.518 178.5,263.5C 180.384,264.675 182.551,265.342 185,265.5C 188.878,266.24 191.712,264.907 193.5,261.5C 192.23,260.712 191.23,259.712 190.5,258.5C 191.5,258.5 192.5,258.5 193.5,258.5C 194.946,255.746 195.946,252.746 196.5,249.5C 195.158,248.207 193.491,247.374 191.5,247C 192.448,246.517 193.448,246.351 194.5,246.5C 196.484,247.694 198.484,247.694 200.5,246.5C 209.149,239.018 217.649,231.352 226,223.5C 226.464,224.094 226.631,224.761 226.5,225.5 Z"/></g>
<g><path style="opacity:1" fill="#796b60" d="M 168.5,260.5 C 172.416,260.025 175.749,261.025 178.5,263.5C 175.623,264.518 172.623,264.351 169.5,263C 167.381,262.658 167.047,261.825 168.5,260.5 Z"/></g>
<g><path style="opacity:1" fill="#878a8d" d="M 96.5,264.5 C 98.7179,264.614 100.718,265.28 102.5,266.5C 102.557,267.609 102.89,268.609 103.5,269.5C 99.5619,270.219 96.0619,271.885 93,274.5C 92.6258,273.584 92.1258,272.75 91.5,272C 93.6011,269.23 96.2677,267.23 99.5,266C 98.2625,265.768 97.2625,265.268 96.5,264.5 Z"/></g>
<g><path style="opacity:1" fill="#273042" d="M 122.5,273.5 C 121.508,273.328 120.842,273.662 120.5,274.5C 121.134,280.496 121.3,286.496 121,292.5C 120.283,291.956 119.783,291.289 119.5,290.5C 120.833,289.833 120.833,289.167 119.5,288.5C 119.334,282.824 119.501,277.157 120,271.5C 121.308,270.849 122.141,271.515 122.5,273.5 Z"/></g>
<g><path style="opacity:1" fill="#212f55" d="M 147.5,286.5 C 147.5,286.833 147.5,287.167 147.5,287.5C 147.167,287.5 146.833,287.5 146.5,287.5C 144.945,279.61 143.945,271.61 143.5,263.5C 145.515,270.341 146.848,278.008 147.5,286.5 Z"/></g>
<g><path style="opacity:1" fill="#8a8a8a" d="M 80.5,279.5 C 82.0311,278.075 81.6977,277.409 79.5,277.5C 82.104,276.351 84.7706,275.518 87.5,275C 85.9632,276.11 85.2965,277.61 85.5,279.5C 83.8333,279.5 82.1667,279.5 80.5,279.5 Z"/></g>
<g><path style="opacity:1" fill="#878c95" d="M 196.5,277.5 C 195.504,277.414 194.671,277.748 194,278.5C 192.22,282.403 189.72,285.737 186.5,288.5C 187.048,286.606 188.048,284.94 189.5,283.5C 183.629,283.021 177.962,282.021 172.5,280.5C 175.192,273.86 180.192,271.026 187.5,272C 185.392,272.36 183.392,273.027 181.5,274C 185.393,274.4 189.06,273.567 192.5,271.5C 193.415,272.328 194.081,273.328 194.5,274.5C 189.66,277.601 184.327,279.268 178.5,279.5C 184.329,280.506 189.829,279.506 195,276.5C 195.765,276.57 196.265,276.903 196.5,277.5 Z"/></g>
<g><path style="opacity:1" fill="#585e6d" d="M 112.5,273.5 C 114.468,278.647 116.801,283.647 119.5,288.5C 120.833,289.167 120.833,289.833 119.5,290.5C 115.27,285.695 112.937,280.029 112.5,273.5 Z"/></g>
<g><path style="opacity:1" fill="#7e7e82" d="M 105.5,267.5 C 106.321,273.292 107.988,278.792 110.5,284C 109.692,284.308 109.025,284.808 108.5,285.5C 109.313,286.814 110.313,287.981 111.5,289C 108.506,288.642 106.673,286.808 106,283.5C 106.016,279.205 105.183,275.205 103.5,271.5C 104.167,270.167 104.833,268.833 105.5,267.5 Z"/></g>
<g><path style="opacity:1" fill="#353436" d="M 259.5,308.5 C 258.5,308.5 257.5,308.5 256.5,308.5C 255.928,306.745 255.094,305.078 254,303.5C 249.483,298.667 245.816,293.334 243,287.5C 236.105,279.606 228.272,272.773 219.5,267C 228.14,271.094 235.973,276.594 243,283.5C 247.906,292.237 253.406,300.57 259.5,308.5 Z"/></g>
<g><path style="opacity:1" fill="#5a616c" d="M 120.5,274.5 C 120.842,273.662 121.508,273.328 122.5,273.5C 125.373,276.111 128.039,278.944 130.5,282C 132.895,283.598 135.228,283.764 137.5,282.5C 138.803,284.142 140.136,285.809 141.5,287.5C 137.33,286.498 133.33,284.998 129.5,283C 126.591,279.957 123.591,277.124 120.5,274.5 Z"/></g>
<g><path style="opacity:1" fill="#181b20" d="M 146.5,287.5 C 146.833,287.5 147.167,287.5 147.5,287.5C 147.5,288.5 147.5,289.5 147.5,290.5C 151.447,293.14 155.78,295.307 160.5,297C 161.252,297.671 161.586,298.504 161.5,299.5C 159.345,299.628 157.345,299.128 155.5,298C 150.516,294.847 145.849,291.347 141.5,287.5C 140.136,285.809 138.803,284.142 137.5,282.5C 136.475,282.103 136.308,281.437 137,280.5C 137.561,281.022 138.228,281.355 139,281.5C 141.086,284.093 143.586,286.093 146.5,287.5 Z"/></g>
<g><path style="opacity:1" fill="#626262" d="M 79.5,277.5 C 81.6977,277.409 82.0311,278.075 80.5,279.5C 70.4308,284.404 63.2641,292.071 59,302.5C 58.6924,301.692 58.1924,301.025 57.5,300.5C 55.8261,303.185 54.1594,305.852 52.5,308.5C 52.1667,308.5 51.8333,308.5 51.5,308.5C 52.3195,306.188 53.1529,303.854 54,301.5C 60.8096,295.022 67.3096,288.189 73.5,281C 75.4048,279.579 77.4048,278.412 79.5,277.5 Z"/></g>
<g><path style="opacity:1" fill="#797778" d="M 186.5,288.5 C 184.931,293.272 182.098,297.272 178,300.5C 180.054,296.101 182.887,292.101 186.5,288.5 Z"/></g>
<g><path style="opacity:1" fill="#737174" d="M 188.5,308.5 C 187.833,308.5 187.167,308.5 186.5,308.5C 189.962,299.615 193.129,290.615 196,281.5C 194.622,290.803 192.122,299.803 188.5,308.5 Z"/></g>
<g><path style="opacity:1" fill="#8b8b8b" d="M 70.5,304.5 C 74.1669,304.164 77.5002,304.997 80.5,307C 76.7283,307.296 73.395,306.463 70.5,304.5 Z"/></g>
<g><path style="opacity:1" fill="#7b7a7d" d="M 241.5,308.5 C 240.833,308.5 240.167,308.5 239.5,308.5C 239.584,303.36 240.25,303.36 241.5,308.5 Z"/></g>
</svg>
